<?xml version="1.0" encoding="UTF-8"?>
<svg width="545px" height="545px" viewBox="0 0 545 545" version="1.1" xmlns="http://www.w3.org/2000/svg" xmlns:xlink="http://www.w3.org/1999/xlink">
    <!-- Generator: Sketch 54.1 (76490) - https://sketchapp.com -->
    <title>icon-flat</title>
    <desc>Created with Sketch.</desc>
    <defs>
        <linearGradient x1="50%" y1="0%" x2="50%" y2="100%" id="linearGradient-1">
            <stop stop-color="#2F373C" offset="0%"></stop>
            <stop stop-color="#22272A" offset="100%"></stop>
        </linearGradient>
    </defs>
    <g id="copay-assets" stroke="none" stroke-width="1" fill="none" fill-rule="evenodd">
        <g id="icons" transform="translate(-1215.000000, -202.000000)">
            <g id="icon-flat" transform="translate(1215.000000, 202.000000)">
                <path d="M0,140.60999 C0,62.9532619 62.9532619,0 140.60999,0 L404.39001,0 C482.046414,0 545,62.9532619 545,140.60999 L545,404.39001 C545,482.046414 482.046414,545 404.39001,545 L140.60999,545 C62.9532619,545 0,482.046414 0,404.39001 L0,140.60999 Z" id="Path" fill="url(#linearGradient-1)" fill-rule="nonzero"></path>
                <g id="icon" transform="translate(104.000000, 104.000000)" fill="#FFB900">
                    <g id="logo">
                        <path d="M170.22334,129.020245 C147.273396,129.020245 128.659943,147.492151 128.659943,170.287679 C128.659943,193.083208 147.273396,211.561547 170.22334,211.561547 C184.523445,211.583739 197.832044,204.25757 205.462151,192.163151 C208.704868,195.187113 257.628717,240.823208 256.657189,241.981321 C238.63566,263.354943 212.545943,278.397547 183.174906,281.743208 C183.174906,290.049453 183.129868,297.056038 183.129868,302.389792 C182.383528,302.409094 161.35734,302.376925 161.35734,302.376925 C161.35734,302.376925 161.235094,289.599075 161.486019,281.672434 C103.522453,277.16866 57.9056604,229.036189 57.9056604,170.326283 C57.9056604,111.629245 103.490283,63.5096415 161.440981,58.9801321 C161.440981,53.6592453 161.376642,38.700283 161.376642,38.700283 L183.174906,38.6037736 L183.168472,59.0509057 C213.009189,62.3836981 239.259755,77.6193208 257.352057,99.5076604 C257.969717,100.247566 207.771943,147.408509 205.918962,149.145679 C198.379437,136.635023 184.8302,128.995871 170.22334,129.020245 Z M169.232509,232.999509 C134.167415,232.999509 105.748604,204.773717 105.748604,169.953113 C105.748604,135.132509 134.167415,106.906717 169.232509,106.906717 C182.598473,106.886356 195.62939,111.088134 206.465849,118.912491 C209.34183,116.049377 221.92666,103.329434 223.753906,101.508623 C208.769208,89.7151698 189.840491,82.6571132 169.232509,82.6571132 C120.68183,82.6571132 81.331717,121.743434 81.331717,169.953113 C81.331717,218.162792 120.68183,257.242679 169.232509,257.242679 C188.219366,257.274264 206.70605,251.15718 221.92666,239.806642 C219.365943,237.329566 207.836283,226.288887 204.297604,222.782377 C204.233264,222.724472 204.188226,222.666566 204.136755,222.60866 C193.766314,229.406404 181.632308,233.018647 169.232509,232.999509 Z M170.088226,319.426925 C251.812415,319.426925 318.056491,253.182849 318.056491,171.45866 C318.056491,89.7344717 251.812415,23.4775283 170.088226,23.4775283 C88.3640377,23.4775283 22.1070943,89.7344717 22.1070943,171.45866 C22.1070943,253.182849 88.3640377,319.426925 170.088226,319.426925 Z M170.049623,0.88145283 L170.062491,0.887886792 C263.985472,0.887886792 340.112113,77.0145283 340.105679,170.943943 C340.105679,264.860491 263.972604,341 170.049623,341 C76.1395094,341 5.68434189e-14,264.860491 5.68434189e-14,170.950377 C5.68434189e-14,77.0273962 76.1395094,0.887886792 170.049623,0.88145283 Z M289.528302,179.520163 L263.577987,179.520163 L263.577987,205.886792 L244.705031,205.886792 L244.705031,179.520163 L218.754717,179.520163 L218.754717,161.618609 L244.705031,161.618609 L244.705031,135.113208 L263.577987,135.113208 L263.577987,161.618609 L289.528302,161.618609 L289.528302,179.520163 Z" id="Combined-Shape" fill-rule="nonzero"></path>
                    </g>
                </g>
            </g>
        </g>
    </g>
</svg>