<?xml version="1.0" encoding="UTF-8"?>
<svg width="187px" height="41px" viewBox="0 0 187 41" version="1.1" xmlns="http://www.w3.org/2000/svg" xmlns:xlink="http://www.w3.org/1999/xlink">
    <!-- Generator: Sketch 54.1 (76490) - https://sketchapp.com -->
    <title>logo-light</title>
    <desc>Created with Sketch.</desc>
    <g id="Symbols" stroke="none" stroke-width="1" fill="none" fill-rule="evenodd">
        <g id="logo-dark" fill-rule="nonzero">
            <g id="logo-light">
                <g id="logo" fill="#FFB900">
                    <path d="M17.457,14.053 C13.89,14.053 10.997,16.924 10.997,20.467 C10.997,24.01 13.89,26.882 17.457,26.882 C19.679597,26.8854491 21.7480889,25.7467778 22.934,23.867 C23.438,24.337 31.042,31.43 30.891,31.61 C28.09,34.932 24.035,37.27 19.47,37.79 C19.47,39.081 19.463,40.17 19.463,40.999 C19.347,41.002 16.079,40.997 16.079,40.997 C16.079,40.997 16.06,39.011 16.099,37.779 C7.09,37.079 -1.0658141e-14,29.598 -1.0658141e-14,20.473 C-1.0658141e-14,11.35 7.085,3.871 16.092,3.167 C16.092,2.34 16.082,0.015 16.082,0.015 L19.47,-3.55271368e-15 L19.469,3.178 C24.107,3.696 28.187,6.064 30.999,9.466 C31.095,9.581 23.293,16.911 23.005,17.181 C21.8331676,15.2365284 19.7272745,14.0492116 17.457,14.053 Z M17.303,30.214 C11.853,30.214 7.436,25.827 7.436,20.415 C7.436,15.003 11.853,10.616 17.303,10.616 C19.3804079,10.6128353 21.405741,11.2658976 23.09,12.482 C23.537,12.037 25.493,10.06 25.777,9.777 C23.448,7.944 20.506,6.847 17.303,6.847 C9.757,6.847 3.641,12.922 3.641,20.415 C3.641,27.908 9.757,33.982 17.303,33.982 C20.2540363,33.986909 23.1273333,33.03616 25.493,31.272 C25.095,30.887 23.303,29.171 22.753,28.626 C22.743,28.617 22.736,28.608 22.728,28.599 C21.1161719,29.6555408 19.2302414,30.2169745 17.303,30.214 Z M36,21.9019608 L31.9666667,21.9019608 L31.9666667,26 L29.0333333,26 L29.0333333,21.9019608 L25,21.9019608 L25,19.1196078 L29.0333333,19.1196078 L29.0333333,15 L31.9666667,15 L31.9666667,19.1196078 L36,19.1196078 L36,21.9019608 Z" id="Combined-Shape"></path>
                </g>
                <polygon id="+" fill="#FFB900" points="187 12.0196078 184.066667 12.0196078 184.066667 15 181.933333 15 181.933333 12.0196078 179 12.0196078 179 9.99607843 181.933333 9.99607843 181.933333 7 184.066667 7 184.066667 9.99607843 187 9.99607843"></polygon>
                <path d="M50.752,10.036 C53.1786788,10.036 55.1946586,10.6519938 56.8,11.884 C58.4053414,13.1160062 59.4879972,14.7866561 60.048,16.896 L56.66,16.896 C56.193331,15.7013274 55.4513384,14.7540035 54.434,14.054 C53.4166616,13.3539965 52.170674,13.004 50.696,13.004 C49.5199941,13.004 48.4700046,13.2933304 47.546,13.872 C46.6219954,14.4506696 45.8940027,15.2766613 45.362,16.35 C44.8299973,17.4233387 44.564,18.6786595 44.564,20.116 C44.564,21.5346738 44.8299973,22.7806613 45.362,23.854 C45.8940027,24.9273387 46.6219954,25.7533304 47.546,26.332 C48.4700046,26.9106696 49.5199941,27.2 50.696,27.2 C52.170674,27.2 53.4166616,26.8500035 54.434,26.15 C55.4513384,25.4499965 56.193331,24.5120059 56.66,23.336 L60.048,23.336 C59.4879972,25.4453439 58.4053414,27.1113272 56.8,28.334 C55.1946586,29.5566728 53.1786788,30.168 50.752,30.168 C48.885324,30.168 47.2333405,29.7433376 45.796,28.894 C44.3586595,28.0446624 43.2480039,26.8593409 42.464,25.338 C41.6799961,23.8166591 41.288,22.0760098 41.288,20.116 C41.288,18.1559902 41.6799961,16.4153409 42.464,14.894 C43.2480039,13.3726591 44.3586595,12.182671 45.796,11.324 C47.2333405,10.465329 48.885324,10.036 50.752,10.036 Z M69.8089524,14.376 C71.2089594,14.376 72.4036141,14.7213299 73.3929524,15.412 C74.3822907,16.1026701 75.0822837,17.0173276 75.4929524,18.156 L75.4929524,14.572 L78.6849524,14.572 L78.6849524,30 L75.4929524,30 L75.4929524,26.416 C75.0822837,27.5546724 74.3822907,28.4693299 73.3929524,29.16 C72.4036141,29.8506701 71.2089594,30.196 69.8089524,30.196 C68.4649457,30.196 67.2656243,29.8786698 66.2109524,29.244 C65.1562805,28.6093302 64.3302887,27.6946726 63.7329524,26.5 C63.1356161,25.3053274 62.8369524,23.8960081 62.8369524,22.272 C62.8369524,20.6666586 63.1356161,19.2666726 63.7329524,18.072 C64.3302887,16.8773274 65.1562805,15.9626698 66.2109524,15.328 C67.2656243,14.6933302 68.4649457,14.376 69.8089524,14.376 Z M70.7889524,17.176 C69.3702786,17.176 68.23629,17.6286621 67.3869524,18.534 C66.5376148,19.4393379 66.1129524,20.6853254 66.1129524,22.272 C66.1129524,23.8586746 66.5376148,25.1046621 67.3869524,26.01 C68.23629,26.9153379 69.3702786,27.368 70.7889524,27.368 C71.6849569,27.368 72.4876155,27.1580021 73.1969524,26.738 C73.9062893,26.3179979 74.4662837,25.7253372 74.8769524,24.96 C75.2876211,24.1946628 75.4929524,23.2986718 75.4929524,22.272 C75.4929524,21.263995 75.2876211,20.3726705 74.8769524,19.598 C74.4662837,18.8233295 73.9062893,18.2260021 73.1969524,17.806 C72.4876155,17.3859979 71.6849569,17.176 70.7889524,17.176 Z M91.7499048,14.376 C93.0939115,14.376 94.2932329,14.6933302 95.3479048,15.328 C96.4025767,15.9626698 97.2285685,16.8773274 97.8259048,18.072 C98.4232411,19.2666726 98.7219048,20.6666586 98.7219048,22.272 C98.7219048,23.8960081 98.4232411,25.3053274 97.8259048,26.5 C97.2285685,27.6946726 96.4025767,28.6093302 95.3479048,29.244 C94.2932329,29.8786698 93.0939115,30.196 91.7499048,30.196 C90.3498978,30.196 89.1552431,29.8506701 88.1659048,29.16 C87.1765665,28.4693299 86.4859068,27.5546724 86.0939048,26.416 L86.0939048,37.336 L82.9019048,37.336 L82.9019048,14.572 L86.0939048,14.572 L86.0939048,18.156 C86.4859068,17.0173276 87.1765665,16.1026701 88.1659048,15.412 C89.1552431,14.7213299 90.3498978,14.376 91.7499048,14.376 Z M90.7699048,17.176 C89.8739003,17.176 89.0712417,17.3859979 88.3619048,17.806 C87.6525679,18.2260021 87.0925735,18.8233295 86.6819048,19.598 C86.2712361,20.3726705 86.0659048,21.263995 86.0659048,22.272 C86.0659048,23.2986718 86.2712361,24.1946628 86.6819048,24.96 C87.0925735,25.7253372 87.6525679,26.3179979 88.3619048,26.738 C89.0712417,27.1580021 89.8739003,27.368 90.7699048,27.368 C92.1885786,27.368 93.3272338,26.9153379 94.1859048,26.01 C95.0445758,25.1046621 95.4739048,23.8586746 95.4739048,22.272 C95.4739048,20.7039922 95.0445758,19.4626712 94.1859048,18.548 C93.3272338,17.6333288 92.1885786,17.176 90.7699048,17.176 Z M105.374857,17.596 C105.897526,16.587995 106.644186,15.7900029 107.614857,15.202 C108.585529,14.6139971 109.705518,14.32 110.974857,14.32 L110.974857,17.792 L110.022857,17.792 C108.62285,17.792 107.498195,18.1326633 106.648857,18.814 C105.79952,19.4953367 105.374857,20.6199922 105.374857,22.188 L105.374857,30 L102.182857,30 L102.182857,14.572 L105.374857,14.572 L105.374857,17.596 Z M113.28781,10.092 C113.28781,9.55066396 113.474474,9.10266844 113.84781,8.748 C114.221145,8.39333156 114.715807,8.216 115.33181,8.216 C115.947813,8.216 116.447141,8.39333156 116.82981,8.748 C117.212478,9.10266844 117.40381,9.55066396 117.40381,10.092 C117.40381,10.633336 117.212478,11.0719983 116.82981,11.408 C116.447141,11.7440017 115.947813,11.912 115.33181,11.912 C114.715807,11.912 114.221145,11.7440017 113.84781,11.408 C113.474474,11.0719983 113.28781,10.633336 113.28781,10.092 Z M116.92781,14.572 L116.92781,30 L113.73581,30 L113.73581,14.572 L116.92781,14.572 Z M128.032762,14.376 C130.030105,14.376 131.682089,14.9033281 132.988762,15.958 C134.295435,17.0126719 135.107427,18.4453243 135.424762,20.256 L132.036762,20.256 C131.850094,19.2853285 131.397432,18.5246694 130.678762,17.974 C129.960092,17.4233306 129.059434,17.148 127.976762,17.148 C126.744756,17.148 125.718099,17.5819957 124.896762,18.45 C124.075425,19.3180043 123.664762,20.5919916 123.664762,22.272 C123.664762,23.9520084 124.075425,25.2306623 124.896762,26.108 C125.718099,26.9853377 126.744756,27.424 127.976762,27.424 C129.059434,27.424 129.960092,27.1440028 130.678762,26.584 C131.397432,26.0239972 131.850094,25.2586715 132.036762,24.288 L135.424762,24.288 C135.107427,26.0986757 134.295435,27.5359947 132.988762,28.6 C131.682089,29.6640053 130.030105,30.196 128.032762,30.196 C126.539421,30.196 125.218768,29.8786698 124.070762,29.244 C122.922756,28.6093302 122.022099,27.6946726 121.368762,26.5 C120.715425,25.3053274 120.388762,23.8960081 120.388762,22.272 C120.388762,20.6666586 120.715425,19.2666726 121.368762,18.072 C122.022099,16.8773274 122.922756,15.9626698 124.070762,15.328 C125.218768,14.6933302 126.539421,14.376 128.032762,14.376 Z M145.941714,14.376 C147.435055,14.376 148.779042,14.6933302 149.973714,15.328 C151.168387,15.9626698 152.101711,16.8773274 152.773714,18.072 C153.445718,19.2666726 153.781714,20.6666586 153.781714,22.272 C153.781714,23.8960081 153.445718,25.3053274 152.773714,26.5 C152.101711,27.6946726 151.168387,28.6093302 149.973714,29.244 C148.779042,29.8786698 147.435055,30.196 145.941714,30.196 C144.448374,30.196 143.109054,29.8786698 141.923714,29.244 C140.738375,28.6093302 139.805051,27.690006 139.123714,26.486 C138.442378,25.281994 138.101714,23.8773414 138.101714,22.272 C138.101714,20.6666586 138.442378,19.2666726 139.123714,18.072 C139.805051,16.8773274 140.738375,15.9626698 141.923714,15.328 C143.109054,14.6933302 144.448374,14.376 145.941714,14.376 Z M145.941714,17.148 C145.120377,17.148 144.364385,17.3346648 143.673714,17.708 C142.983044,18.0813352 142.427717,18.6553295 142.007714,19.43 C141.587712,20.2046705 141.377714,21.1519944 141.377714,22.272 C141.377714,23.4106724 141.587712,24.3626628 142.007714,25.128 C142.427717,25.8933372 142.983044,26.4626648 143.673714,26.836 C144.364385,27.2093352 145.120377,27.396 145.941714,27.396 C146.763052,27.396 147.519044,27.2093352 148.209714,26.836 C148.900385,26.4626648 149.455712,25.8933372 149.875714,25.128 C150.295717,24.3626628 150.505714,23.4106724 150.505714,22.272 C150.505714,21.1519944 150.295717,20.2046705 149.875714,19.43 C149.455712,18.6553295 148.900385,18.0813352 148.209714,17.708 C147.519044,17.3346648 146.763052,17.148 145.941714,17.148 Z M156.794667,10.092 C156.794667,9.55066396 156.981332,9.10266844 157.354667,8.748 C157.728002,8.39333156 158.222664,8.216 158.838667,8.216 C159.45467,8.216 159.953998,8.39333156 160.336667,8.748 C160.719335,9.10266844 160.910667,9.55066396 160.910667,10.092 C160.910667,10.633336 160.719335,11.0719983 160.336667,11.408 C159.953998,11.7440017 159.45467,11.912 158.838667,11.912 C158.222664,11.912 157.728002,11.7440017 157.354667,11.408 C156.981332,11.0719983 156.794667,10.633336 156.794667,10.092 Z M160.434667,14.572 L160.434667,30 L157.242667,30 L157.242667,14.572 L160.434667,14.572 Z M173.303619,14.32 C175.095628,14.32 176.532947,14.8986609 177.615619,16.056 C178.698291,17.2133391 179.239619,18.8653226 179.239619,21.012 L179.239619,30 L176.047619,30 L176.047619,21.348 C176.047619,19.9666598 175.692956,18.8980038 174.983619,18.142 C174.274282,17.3859962 173.303625,17.008 172.071619,17.008 C170.80228,17.008 169.784956,17.4139959 169.019619,18.226 C168.254282,19.0380041 167.871619,20.2279922 167.871619,21.796 L167.871619,30 L164.679619,30 L164.679619,14.572 L167.871619,14.572 L167.871619,17.96 C168.282288,16.8026609 168.972948,15.9066698 169.943619,15.272 C170.914291,14.6373302 172.03428,14.32 173.303619,14.32 Z" id="Capricoin" fill="#191919"></path>
            </g>
        </g>
    </g>
</svg>