<?xml version="1.0" encoding="UTF-8"?>
<svg width="125px" height="125px" viewBox="0 0 125 125" version="1.1" xmlns="http://www.w3.org/2000/svg" xmlns:xlink="http://www.w3.org/1999/xlink">
    <!-- Generator: Sketch 54.1 (76490) - https://sketchapp.com -->
    <title>address-book-add</title>
    <desc>Created with Sketch.</desc>
    <g id="copay-assets" stroke="none" stroke-width="1" fill="none" fill-rule="evenodd">
        <g id="src/assets/img" transform="translate(-308.000000, -164.000000)" stroke="#FFB900" stroke-width="2">
            <g id="address-book-add" transform="translate(309.000000, 165.000000)">
                <path d="M51.3,65.7 C34.6,65.7 22.1,69.4 12.4,72.7 C5.2,75.1 0.4,81.8 0.4,89.4 L0.4,112.7 L59.6,112.7" id="Path"></path>
                <path d="M36.1,35.6 L36.1,29.7 C36.1,13.5 49.4,0.3 65.7,0.3 C82.1,0.3 95.3,13.4 95.3,29.7 L95.3,35.6 C95.4,51.8 82.1,70.8 65.7,70.8 C49.3,70.8 36.1,51.8 36.1,35.6 Z" id="Path"></path>
                <path d="M104.3,88.4 L104.3,123.6" id="Path"></path>
                <path d="M88.1,104.3 L123.6,104.3" id="Path"></path>
            </g>
        </g>
    </g>
</svg>