<?xml version="1.0" encoding="UTF-8"?>
<svg width="249px" height="236px" viewBox="0 0 249 236" version="1.1" xmlns="http://www.w3.org/2000/svg" xmlns:xlink="http://www.w3.org/1999/xlink">
    <!-- Generator: Sketch 54.1 (76490) - https://sketchapp.com -->
    <title>bitpay-wallet-qr-scan-guides</title>
    <desc>Created with Sketch.</desc>
    <g id="copay-assets" stroke="none" stroke-width="1" fill="none" fill-rule="evenodd">
        <g id="src/assets/img" transform="translate(-22.000000, -42.000000)">
            <g id="bitpay-wallet-qr-scan-guides" transform="translate(22.000000, 42.000000)">
                <g id="scan-line" transform="translate(0.000000, 110.000000)">
                    <path d="M0,1 L249,1" id="Path" fill="#000000" fill-rule="nonzero"></path>
                    <path d="M0,1 L249,1" id="line" stroke="#FFB900" stroke-width="2"></path>
                </g>
                <path d="M17,10 L70.1,10 C72.9,10 75.1,7.8 75.1,5 C75.1,2.2 72.9,0 70.1,0 L12,0 C9.2,0 7,2.2 7,5 L7,63 C7,65.8 9.2,68 12,68 C14.8,68 17,65.8 17,63 L17,10 Z" id="top-left" fill-opacity="0.3" fill="#FFFFFF" fill-rule="nonzero"></path>
                <path d="M17,224.7 L17,171.6 C17,168.8 14.8,166.6 12,166.6 C9.2,166.6 7,168.8 7,171.6 L7,229.7 C7,232.5 9.2,234.7 12,234.7 L70,234.7 C72.8,234.7 75,232.5 75,229.7 C75,226.9 72.8,224.7 70,224.7 L17,224.7 Z" id="bottom-left" fill-opacity="0.3" fill="#FFFFFF" fill-rule="nonzero"></path>
                <path d="M233,10 L233,63.1 C233,65.9 235.2,68.1 238,68.1 C240.8,68.1 243,65.9 243,63.1 L243,5 C243,2.2 240.8,0 238,0 L180,0 C177.2,0 175,2.2 175,5 C175,7.8 177.2,10 180,10 L233,10 Z" id="top-right" fill-opacity="0.3" fill="#FFFFFF" fill-rule="nonzero"></path>
                <path d="M233.1,225.6 L180,225.6 C177.2,225.6 175,227.8 175,230.6 C175,233.4 177.2,235.6 180,235.6 L238.1,235.6 C240.9,235.6 243.1,233.4 243.1,230.6 L243.1,172.6 C243.1,169.8 240.9,167.6 238.1,167.6 C235.3,167.6 233.1,169.8 233.1,172.6 L233.1,225.6 Z" id="bottom-right" fill-opacity="0.3" fill="#FFFFFF" fill-rule="nonzero"></path>
            </g>
        </g>
    </g>
</svg>