<?xml version="1.0" encoding="UTF-8"?>
<svg width="66px" height="67px" viewBox="0 0 66 67" version="1.1" xmlns="http://www.w3.org/2000/svg" xmlns:xlink="http://www.w3.org/1999/xlink">
    <!-- Generator: Sketch 54.1 (76490) - https://sketchapp.com -->
    <title>bought-pending</title>
    <desc>Created with Sketch.</desc>
    <g id="copay-assets" stroke="none" stroke-width="1" fill="none" fill-rule="evenodd">
        <g id="src/assets/img" transform="translate(-134.000000, -308.000000)" fill="#FFB900" fill-rule="nonzero">
            <g id="bought-pending" transform="translate(134.000000, 308.000000)">
                <path d="M33,66.9 C14.8,66.9 0,52.1 0,33.9 C0,15.7 14.8,0.9 33,0.9 C51.2,0.9 66,15.7 66,33.9 C66,52.1 51.2,66.9 33,66.9 Z M33,2.9 C15.9,2.9 2,16.8 2,33.9 C2,51 15.9,64.9 33,64.9 C50.1,64.9 64,51 64,33.9 C64,16.8 50.1,2.9 33,2.9 Z" id="Shape"></path>
                <g id="plus-round" transform="translate(15.933333, 16.933333)">
                    <path d="M19.9,14.2 L19.9,2.7 C19.9,1.2 18.6,0 17.1,0 C15.6,0 14.3,1.2 14.3,2.7 L14.3,14.2 L2.8,14.2 C1.3,14.2 0.1,15.5 0.1,17 C0.1,18.5 1.3,19.8 2.8,19.8 L14.3,19.8 L14.3,31.3 C14.3,32.8 15.6,34 17.1,34 C18.6,34 19.9,32.8 19.9,31.3 L19.9,19.8 L31.4,19.8 C32.9,19.8 34.1,18.5 34.1,17 C34.1,15.5 32.9,14.2 31.4,14.2 L19.9,14.2 Z" id="Shape"></path>
                </g>
            </g>
        </g>
    </g>
</svg>