<?xml version="1.0" encoding="UTF-8"?>
<svg width="78px" height="75px" viewBox="0 0 78 75" version="1.1" xmlns="http://www.w3.org/2000/svg" xmlns:xlink="http://www.w3.org/1999/xlink">
    <!-- Generator: Sketch 54.1 (76490) - https://sketchapp.com -->
    <title>bought</title>
    <desc>Created with Sketch.</desc>
    <g id="copay-assets" stroke="none" stroke-width="1" fill="none" fill-rule="evenodd">
        <g id="src/assets/img" transform="translate(-29.000000, -304.000000)" fill-rule="nonzero">
            <g id="bought" transform="translate(29.000000, 304.000000)">
                <g id="Oval-356-_x2B_-ios7-redo">
                    <g id="Group">
                        <circle id="Oval-356_1_" fill="#FFFFFF" cx="33" cy="33.9" r="32"></circle>
                        <path d="M33,66.9 C14.8,66.9 0,52.1 0,33.9 C0,15.7 14.8,0.9 33,0.9 C51.2,0.9 66,15.7 66,33.9 C66,52.1 51.2,66.9 33,66.9 Z M33,2.9 C15.9,2.9 2,16.8 2,33.9 C2,51 15.9,64.9 33,64.9 C50.1,64.9 64,51 64,33.9 C64,16.8 50.1,2.9 33,2.9 Z" id="Shape" fill="#FFB900"></path>
                    </g>
                    <g id="plus-round" transform="translate(15.933333, 16.933333)" fill="#FFB900">
                        <path d="M19.9,14.2 L19.9,2.7 C19.9,1.2 18.6,0 17.1,0 C15.6,0 14.3,1.2 14.3,2.7 L14.3,14.2 L2.8,14.2 C1.3,14.2 0.1,15.5 0.1,17 C0.1,18.5 1.3,19.8 2.8,19.8 L14.3,19.8 L14.3,31.3 C14.3,32.8 15.6,34 17.1,34 C18.6,34 19.9,32.8 19.9,31.3 L19.9,19.8 L31.4,19.8 C32.9,19.8 34.1,18.5 34.1,17 C34.1,15.5 32.9,14.2 31.4,14.2 L19.9,14.2 Z" id="Shape"></path>
                    </g>
                </g>
                <g id="Group" transform="translate(46.000000, 42.000000)">
                    <path d="M1,16.9 C1,25.2 7.7,31.9 16,31.9 C24.3,31.9 31,25.2 31,16.9 C31,8.6 24.3,1.9 16,1.9 C7.7,1.9 1,8.6 1,16.9 Z" id="Shape-Copy-4_1_" fill="#1E222A"></path>
                    <path d="M16,32.9 C7.2,32.9 0,25.7 0,16.9 C0,8.1 7.2,0.9 16,0.9 C24.8,0.9 32,8.1 32,16.9 C32,25.7 24.8,32.9 16,32.9 Z M16,2.9 C8.3,2.9 2,9.2 2,16.9 C2,24.6 8.3,30.9 16,30.9 C23.7,30.9 30,24.6 30,16.9 C30,9.2 23.7,2.9 16,2.9 Z" id="Shape" fill="#FFFFFF"></path>
                </g>
                <path d="M70.7,54 L61.2,65.9 C61.1,66 61,66.1 60.9,66.1 C60.7,66.1 60.6,66 60.6,65.9 C60.5,65.8 55.2,60.9 55.2,60.9 L55.1,60.8 C55.1,60.7 55,60.7 55,60.6 C55,60.5 55,60.4 55.1,60.4 C55.1,60.4 55.1,60.4 55.2,60.3 C55.7,59.8 56.8,58.7 56.9,58.6 C57,58.5 57.1,58.4 57.2,58.4 C57.4,58.4 57.5,58.5 57.6,58.6 C57.7,58.7 60.7,61.5 60.7,61.5 L68.3,52 C68.4,51.9 68.4,51.9 68.5,51.9 C68.6,51.9 68.7,51.9 68.7,52 L70.8,53.6 C70.9,53.7 70.9,53.7 70.9,53.8 C70.8,53.9 70.7,54 70.7,54 L70.7,54 Z" id="Path-Copy" fill="#FFFFFF"></path>
            </g>
        </g>
    </g>
</svg>