<svg width="22" height="22" viewBox="0 0 22 22" fill="none" xmlns="http://www.w3.org/2000/svg">
<path d="M9.19925 1.52387C8.93564 1.26027 8.50826 1.26027 8.24465 1.52387C7.98105 1.78748 7.98105 2.21486 8.24465 2.47847L10.3206 4.55445V9.9255L5.66803 7.23932L4.90817 4.40348C4.81169 4.04339 4.44156 3.82969 4.08147 3.92618C3.72138 4.02267 3.50769 4.39279 3.60417 4.75288L4.2617 7.20679L1.80779 7.86431C1.4477 7.9608 1.23401 8.33093 1.33049 8.69102C1.42698 9.05111 1.79711 9.2648 2.1572 9.16831L4.99303 8.40845L9.64618 11.0949L4.99284 13.7816L2.157 13.0217C1.79691 12.9252 1.42678 13.1389 1.3303 13.499C1.23381 13.8591 1.4475 14.2292 1.80759 14.3257L4.2615 14.9832L3.60398 17.4371C3.50749 17.7972 3.72119 18.1673 4.08128 18.2638C4.44136 18.3603 4.81149 18.1466 4.90798 17.7865L5.66784 14.9507L10.3206 12.2644V17.6373L8.24465 19.7133C7.98105 19.9769 7.98105 20.4043 8.24465 20.6679C8.50826 20.9315 8.93564 20.9315 9.19925 20.6679L10.9956 18.8715L12.792 20.6679C13.0556 20.9315 13.483 20.9315 13.7466 20.6679C14.0102 20.4043 14.0102 19.9769 13.7466 19.7133L11.6706 17.6373V12.2638L16.3232 14.9499L17.083 17.7857C17.1795 18.1458 17.5496 18.3595 17.9097 18.263C18.2698 18.1666 18.4835 17.7964 18.387 17.4363L17.7295 14.9824L20.1834 14.3249C20.5435 14.2284 20.7572 13.8583 20.6607 13.4982C20.5642 13.1381 20.1941 12.9244 19.834 13.0209L16.9982 13.7808L12.3462 11.0949L16.998 8.40923L19.8338 9.16909C20.1939 9.26558 20.564 9.05189 20.6605 8.6918C20.757 8.33171 20.5433 7.96158 20.1832 7.86509L17.7293 7.20757L18.3868 4.75367C18.4833 4.39358 18.2696 4.02345 17.9095 3.92696C17.5494 3.83048 17.1793 4.04417 17.0828 4.40426L16.323 7.2401L11.6706 9.92612V4.55445L13.7466 2.47847C14.0102 2.21486 14.0102 1.78748 13.7466 1.52387C13.483 1.26027 13.0556 1.26027 12.792 1.52387L10.9956 3.32026L9.19925 1.52387Z" fill="white"/>
</svg>
