<svg width="28" height="32" viewBox="0 0 28 32" fill="none" xmlns="http://www.w3.org/2000/svg">
<path fill-rule="evenodd" clip-rule="evenodd" d="M6.55583 3.42334V8.66162H0.899902V12.8616H6.55583V15.9948H0.899906V20.1948H6.55583V28.5757H10.7558V20.1948H17.6666C21.3095 20.1948 23.8021 18.9719 25.3263 17.0782C26.779 15.2734 27.0999 13.1684 27.0999 11.8091C27.0999 10.4497 26.779 8.34473 25.3263 6.5399C23.8021 4.6462 21.3095 3.42334 17.6666 3.42334H6.55583ZM10.7558 15.9948V7.62334H17.6666C20.3094 7.62334 21.4834 8.46391 22.0545 9.17336C22.697 9.97168 22.8999 11.0095 22.8999 11.8091C22.8999 12.6086 22.697 13.6464 22.0545 14.4447C21.4834 15.1542 20.3094 15.9948 17.6666 15.9948H10.7558Z" fill="white" fill-opacity="0.23"/>
</svg>
