<?xml version="1.0" encoding="UTF-8"?>
<svg width="25px" height="25px" viewBox="0 0 25 25" version="1.1" xmlns="http://www.w3.org/2000/svg" xmlns:xlink="http://www.w3.org/1999/xlink">
    <!-- Generator: Sketch 54.1 (76490) - https://sketchapp.com -->
    <title>icon-question-help</title>
    <desc>Created with Sketch.</desc>
    <g id="copay-assets" stroke="none" stroke-width="1" fill="none" fill-rule="evenodd">
        <g id="src/assets/img" transform="translate(-514.000000, -264.000000)" fill-rule="nonzero">
            <g id="icon-question-help" transform="translate(514.000000, 264.000000)">
                <path d="M12.5,0 C5.60727174,0 0,5.60753804 0,12.5 C0,19.392462 5.60727174,25 12.5,25 C19.3927283,25 25,19.392462 25,12.5 C25,5.60753804 19.3927283,0 12.5,0 Z" id="Path" fill="#FFB900"></path>
                <path d="M12.8234345,6.25 C11.2607955,6.25 9.64385226,7.26933333 8.97835831,8.67391766 C8.84722347,8.94993254 8.98413775,9.27176984 9.28337341,9.39245883 C9.58376851,9.5139499 9.93211466,9.38712798 10.062096,9.11085119 C10.5404175,8.10217411 11.7275641,7.34126984 12.8234345,7.34126984 C14.3987858,7.34126984 15.7811854,8.61610764 15.7811854,10.0694444 C15.7811854,11.5227813 14.3987858,12.797619 12.8234345,12.797619 C12.4964669,12.797619 12.2318843,13.0419271 12.2318843,13.343254 L12.2318843,15.5257937 C12.2318843,15.8271205 12.4964669,16.0714286 12.8234345,16.0714286 C13.150402,16.0714286 13.4149846,15.8271205 13.4149846,15.5257937 L13.4149846,13.8481245 C15.3912473,13.5742431 16.9642857,11.9549187 16.9642857,10.0694444 C16.9642857,7.99907093 15.0677463,6.25 12.8234345,6.25 Z" id="Path" fill="#FFFFFF"></path>
                <circle id="Oval" fill="#FFFFFF" cx="12.5" cy="17.857" r="1"></circle>
            </g>
        </g>
    </g>
</svg>