<svg width="12" height="16" viewBox="0 0 12 16" fill="none" xmlns="http://www.w3.org/2000/svg">
<path fill-rule="evenodd" clip-rule="evenodd" d="M7.71429 2H2.64433V4.55319H0V6.34042H2.64433V8.12766H0V9.91489H2.64433V14H4.35862V9.91489H7.71429C9.38777 9.91489 10.514 9.33067 11.1983 8.44427C11.8535 7.5957 12 6.6027 12 5.95745C12 5.3122 11.8535 4.31919 11.1983 3.47062C10.514 2.58423 9.38777 2 7.71429 2ZM7.71429 8.12766H4.35862V3.78723H7.71429C8.97958 3.78723 9.56762 4.20878 9.86289 4.59124C10.1874 5.01151 10.2857 5.55042 10.2857 5.95745C10.2857 6.36447 10.1874 6.90338 9.86289 7.32365C9.56762 7.70611 8.97958 8.12766 7.71429 8.12766Z" fill="#5D5D5D"/>
</svg>
