<?xml version="1.0" encoding="UTF-8"?>
<svg width="47px" height="47px" viewBox="0 0 47 47" version="1.1" xmlns="http://www.w3.org/2000/svg" xmlns:xlink="http://www.w3.org/1999/xlink">
    <!-- Generator: Sketch 54.1 (76490) - https://sketchapp.com -->
    <title>icon-update</title>
    <desc>Created with Sketch.</desc>
    <g id="copay-assets" stroke="none" stroke-width="1" fill="none" fill-rule="evenodd">
        <g id="src/assets/img" transform="translate(-828.000000, -451.000000)">
            <g id="icon-update" transform="translate(828.000000, 451.000000)">
                <path d="M23.1,46.1 C35.8,46.1 46.1,35.8 46.1,23.1 C46.1,10.4 35.8,0.1 23.1,0.1 C10.4,0.1 0.1,10.4 0.1,23.1 C0.1,35.8 10.4,46.1 23.1,46.1 Z" id="Oval-87" fill="#FFB900" fill-rule="nonzero"></path>
                <path d="M33.6,17.6 L19.6,17.6 C16.3,17.6 13.6,20.3 13.6,23.6 L13.6,24.6" id="Shape" stroke="#FFFEFE"></path>
                <path d="M13.6,29.6 L27.6,29.6 C30.9,29.6 33.6,26.9 33.6,23.6 L33.6,22.6" id="Shape_1_" stroke="#FFFEFE"></path>
                <polyline id="Shape_2_" stroke="#FFFEFE" points="29.6 21.6 33.6 17.6 29.6 13.6"></polyline>
                <polyline id="Shape_3_" stroke="#FFFEFE" points="17.6 25.6 13.6 29.6 17.6 33.6"></polyline>
            </g>
        </g>
    </g>
</svg>