<?xml version="1.0" encoding="UTF-8"?>
<svg width="15px" height="20px" viewBox="0 0 15 20" version="1.1" xmlns="http://www.w3.org/2000/svg" xmlns:xlink="http://www.w3.org/1999/xlink">
    <!-- Generator: Sketch 54.1 (76490) - https://sketchapp.com -->
    <title>icon-lock-green</title>
    <desc>Created with Sketch.</desc>
    <g id="copay-assets" stroke="none" stroke-width="1" fill="none" fill-rule="evenodd">
        <g id="src/assets/img" transform="translate(-53.000000, -769.000000)" fill="#FFB900" fill-rule="nonzero">
            <g id="icon-lock-green" transform="translate(53.000000, 769.000000)">
                <path d="M12.2,6.7 L12.2,5.4 C12.2,2.7 10.2,0.7 7.5,0.7 C4.8,0.7 2.8,2.7 2.8,5.4 L2.8,6.8 L0.5,6.8 L0.5,19.3 L14.4,19.3 L14.4,6.7 L12.2,6.7 Z M4.6,5.4 C4.6,3.8 5.9,2.5 7.5,2.5 C9.1,2.5 10.4,3.8 10.4,5.4 L10.4,6.8 L4.6,6.8 L4.6,5.4 Z M12.6,17.4 L2.4,17.4 L2.4,8.6 L2.8,8.6 L12.2,8.6 L12.7,8.6 L12.7,17.4 L12.6,17.4 Z" id="Shape"></path>
                <path d="M7.5,9.8 C6.2,9.8 5.1,10.9 5.1,12.2 C5.1,13.2 5.8,14.1 6.6,14.4 L6.6,15.1 L8.5,15.1 L8.5,14.4 C9.4,14 10,13.2 10,12.2 C9.9,10.9 8.8,9.8 7.5,9.8 Z M7.5,11.7 C7.8,11.7 8.1,12 8.1,12.3 C8.1,12.7 7.8,12.9 7.5,12.9 C7.2,12.9 6.9,12.6 6.9,12.3 C6.9,12 7.2,11.7 7.5,11.7 Z" id="Shape"></path>
            </g>
        </g>
    </g>
</svg>