<?xml version="1.0" encoding="UTF-8"?>
<svg width="10px" height="12px" viewBox="0 0 10 12" version="1.1" xmlns="http://www.w3.org/2000/svg" xmlns:xlink="http://www.w3.org/1999/xlink">
    <!-- Generator: Sketch 54.1 (76490) - https://sketchapp.com -->
    <title>icon-cps-small</title>
    <desc>Created with Sketch.</desc>
    <g id="copay-assets" stroke="none" stroke-width="1" fill="none" fill-rule="evenodd" fill-opacity="0.8">
        <g id="src/assets/img" transform="translate(-116.000000, -756.000000)" fill="#5D5D5D" fill-rule="nonzero">
            <path d="M120.235294,766.55758 C117.85081,766.293401 116,764.353782 116,762.000166 C116,759.64655 117.85081,757.706639 120.235294,757.442419 L120.235294,757.32872 L120.235294,756.79308 L120.235294,756 L121.235294,756 L121.235294,757.431155 C122.186422,757.514824 123.056385,757.865171 123.764706,758.402627 C123.665086,758.498331 122.978975,759.166909 122.822179,759.317399 C122.231387,758.906139 121.520956,758.685288 120.792257,758.686358 C118.880546,758.686358 117.331183,760.169946 117.331183,762.000166 C117.331183,763.830386 118.880546,765.313974 120.792257,765.313974 C121.468281,765.31498 122.129814,765.125115 122.6952,764.767816 C122.698006,764.77086 122.700461,764.773903 122.703969,764.776947 C122.896894,764.961254 123.525479,765.541568 123.665086,765.671766 C122.954228,766.182844 122.112698,766.492056 121.235294,766.569161 L121.235294,768 L120.235294,768 L120.235294,767.211073 L120.235294,766.675433 L120.235294,766.55758 Z M125.882353,762.449827 L124.588235,762.449827 L124.588235,763.764706 L123.647059,763.764706 L123.647059,762.449827 L122.352941,762.449827 L122.352941,761.557093 L123.647059,761.557093 L123.647059,760.235294 L124.588235,760.235294 L124.588235,761.557093 L125.882353,761.557093 L125.882353,762.449827 Z" id="icon-cps-small"></path>
        </g>
    </g>
</svg>