<svg width="51" height="51" viewBox="0 0 51 51" fill="none" xmlns="http://www.w3.org/2000/svg">
<path d="M25.5 51C39.6 51 51 39.6 51 25.5C51 11.4 39.5 0 25.5 0C11.5 0 0 11.4 0 25.5C0 39.6 11.4 51 25.5 51Z" fill="#45D492"/>
<path d="M28.5671 28.6092H22.3862V22.3916H28.5671V28.6092ZM37.8935 18.2037C37.6379 16.7233 36.8251 15.3216 35.6457 14.3891C34.5512 13.4878 33.1486 13.0035 31.7336 13.0023C27.5373 13.001 23.3374 12.9973 19.1411 13.0035C16.9507 13.0285 14.8812 14.2979 13.8153 16.2053C13.2232 17.2289 13.0012 18.3798 13 19.5531C13.0025 23.3802 12.9988 27.2098 13.0012 31.037C12.9938 31.927 13.0324 32.7821 13.3105 33.6359C13.9287 35.6144 15.5968 37.2159 17.589 37.7738C16.9868 37.2932 16.7201 36.6242 16.5243 35.9002C16.1192 34.3124 16.088 32.6635 16.1529 31.037C16.1466 27.2086 16.1553 23.3802 16.1478 19.5531C16.1541 18.894 16.2027 18.2749 16.5393 17.6919C17.0579 16.762 18.0689 16.1403 19.1411 16.1541C23.1292 16.1516 27.1223 16.1553 31.1103 16.1528C31.7125 16.1541 32.2597 16.1091 32.8358 16.3277C33.7932 16.6459 34.5524 17.5034 34.7618 18.4896C34.8802 19.0688 34.8491 19.7116 34.8503 20.302V31.5363C34.8503 32.088 34.7893 32.6272 34.5524 33.1316C34.0637 34.1551 33.0066 34.8654 31.8609 34.8442C28.7042 34.8492 25.5439 34.8429 22.3874 34.8466C22.3812 33.8169 22.3825 32.7858 22.3862 31.7548C24.963 31.7548 27.5386 31.751 30.1155 31.7572C30.6703 31.7872 31.3086 31.5064 31.5641 30.9946C31.7087 30.7337 31.7324 30.4553 31.7387 30.1644C31.7361 27.0426 31.7375 23.922 31.7375 20.8001C31.7624 20.2222 31.4831 19.7066 30.972 19.432C30.5456 19.1836 30.0893 19.2473 29.6144 19.2385C26.6647 19.246 23.7114 19.2348 20.763 19.2447C19.919 19.2235 19.2159 19.9587 19.2421 20.8001C19.2296 25.2851 19.2421 29.795 19.2358 34.2824C19.2596 35.1737 19.2308 36.0187 19.7469 36.7902C20.1384 37.428 20.8004 37.7513 21.5122 37.8925C22.3538 38.0285 23.1591 37.9961 24.0044 37.9973C26.5812 37.9985 29.1568 37.9961 31.7336 37.9998C33.0152 38.0111 34.2632 37.5953 35.3154 36.87C36.4435 36.0375 37.3188 34.8891 37.7214 33.536C37.9994 32.621 37.9944 31.7323 37.9994 30.7873C37.9994 27.2086 38.0007 23.6311 37.9994 20.0524C37.9944 19.4382 37.9883 18.8116 37.8935 18.2037Z" fill="white"/>
</svg>
