<svg width="57" height="16" viewBox="0 0 57 16" fill="none" xmlns="http://www.w3.org/2000/svg">
<path d="M54.5 0.5H2.5C1.39543 0.5 0.5 1.39543 0.5 2.5V13.5C0.5 14.6046 1.39543 15.5 2.5 15.5H54.5C55.6046 15.5 56.5 14.6046 56.5 13.5V2.5C56.5 1.39543 55.6046 0.5 54.5 0.5Z" stroke="#FBFBFB"/>
<path d="M8.79252 10.3128C8.79252 9.93405 8.67506 9.64438 8.44013 9.44385C8.2052 9.23886 7.78233 9.02496 7.17152 8.80214C6.56071 8.57487 6.07715 8.35205 5.72084 8.13369C4.74981 7.53654 4.26429 6.73217 4.26429 5.72059C4.26429 5.19474 4.3935 4.72683 4.65192 4.31684C4.91426 3.90241 5.28819 3.57932 5.7737 3.34759C6.26313 3.11586 6.8113 3 7.41819 3C8.02901 3 8.57326 3.12701 9.05094 3.38102C9.52863 3.63057 9.89864 3.98485 10.161 4.44385C10.4272 4.90285 10.5604 5.42424 10.5604 6.00802H8.79839C8.79839 5.56239 8.67506 5.21702 8.42838 4.97193C8.18171 4.72237 7.83519 4.59759 7.38883 4.59759C6.95813 4.59759 6.62336 4.70232 6.38451 4.91176C6.14567 5.11676 6.02625 5.38859 6.02625 5.72727C6.02625 6.04367 6.16525 6.30882 6.44325 6.52273C6.72516 6.73663 7.13824 6.93717 7.68249 7.12433C8.68485 7.46747 9.41508 7.89305 9.87319 8.40107C10.3313 8.90909 10.5604 9.54189 10.5604 10.2995C10.5604 11.1417 10.2804 11.8035 9.72048 12.2848C9.16057 12.7616 8.40685 13 7.45931 13C6.80151 13 6.20245 12.8641 5.66211 12.5922C5.12178 12.316 4.7087 11.9394 4.42287 11.4626C4.14096 10.9857 4 10.4332 4 9.80481H5.76783C5.76783 10.8788 6.33166 11.4158 7.45931 11.4158C7.87826 11.4158 8.2052 11.32 8.44013 11.1283C8.67506 10.9323 8.79252 10.6604 8.79252 10.3128Z" fill="white"/>
<path d="M18.1955 4.75802H15.5761V12.8663H13.8141V4.75802H11.2299V3.13369H18.1955V4.75802Z" fill="white"/>
<path d="M23.3287 10.861H20.2394L19.652 12.8663H17.7785L20.9618 3.13369H22.5945L25.7954 12.8663H23.9219L23.3287 10.861ZM20.7151 9.23663H22.8529L21.7781 5.59358L20.7151 9.23663Z" fill="white"/>
<path d="M29.2723 8.96257L28.3561 10.0856V12.8663H26.5942V3.13369H28.3561V7.54545L29.1314 6.33556L31.3103 3.13369H33.4775L30.4411 7.45856L33.5656 12.8663H31.4689L29.2723 8.96257Z" fill="white"/>
<path d="M36.1028 12.8663H34.3409V3.13369H36.1028V12.8663Z" fill="white"/>
<path d="M44.6953 12.8663H42.9334L39.5034 6.46257V12.8663H37.7415V3.13369H39.5034L42.9392 9.5508V3.13369H44.6953V12.8663Z" fill="white"/>
<path d="M53 11.6364C52.6828 12.0686 52.2345 12.4051 51.655 12.6457C51.0756 12.8819 50.4334 13 49.7286 13C48.9886 13 48.3386 12.8173 47.7787 12.4519C47.2227 12.082 46.792 11.5472 46.4866 10.8476C46.1851 10.1479 46.0305 9.32576 46.0227 8.38102V7.71925C46.0227 6.74777 46.1656 5.90775 46.4514 5.1992C46.7411 4.48619 47.1562 3.94251 47.6965 3.56818C48.2408 3.18939 48.877 3 49.6053 3C50.6194 3 51.4123 3.27629 51.9839 3.82888C52.5556 4.37701 52.8943 5.17692 53 6.22861H51.285C51.2067 5.67157 51.0325 5.26381 50.7623 5.00535C50.4961 4.74688 50.128 4.61765 49.6582 4.61765C49.0591 4.61765 48.6029 4.87389 48.2897 5.38636C47.9765 5.89884 47.8179 6.66087 47.814 7.67246V8.29412C47.814 9.31462 47.9843 10.0856 48.3249 10.607C48.6656 11.1283 49.1648 11.389 49.8226 11.389C50.4843 11.389 50.9561 11.2286 51.238 10.9078V9.22995H49.6347V7.75267H53V11.6364Z" fill="white"/>
</svg>
