<?xml version="1.0" encoding="UTF-8"?>
<svg width="20px" height="20px" viewBox="0 0 20 20" version="1.1" xmlns="http://www.w3.org/2000/svg" xmlns:xlink="http://www.w3.org/1999/xlink">
    <!-- Generator: Sketch 54.1 (76490) - https://sketchapp.com -->
    <title>icon-unlink</title>
    <desc>Created with Sketch.</desc>
    <g id="copay-assets" stroke="none" stroke-width="1" fill="none" fill-rule="evenodd">
        <g id="src/assets/img" transform="translate(-768.000000, -314.000000)" stroke="#666677">
            <g id="icon-unlink" transform="translate(769.000000, 315.000000)">
                <g id="Group-2" transform="translate(12.384615, 12.000000)">
                    <path d="M0.3,5.7 L5.7,0.3" id="Shape" transform="translate(3.000000, 3.000000) scale(-1, 1) translate(-3.000000, -3.000000) "></path>
                    <path d="M0.3,5.7 L5.7,0.3" id="Shape"></path>
                </g>
                <g id="Group" transform="translate(0.384615, 0.000000)">
                    <path d="M8.1,3.6 L10.35,1.35 C12.06,-0.36 14.94,-0.36 16.65,1.35 L16.65,1.35 C18.36,3.06 18.36,5.94 16.65,7.65 L14.4,9.9" id="Shape"></path>
                    <path d="M9.9,14.4 L7.65,16.65 C5.94,18.36 3.06,18.36 1.35,16.65 L1.35,16.65 C-0.36,14.94 -0.36,12.06 1.35,10.35 L3.6,8.1" id="Shape"></path>
                    <path d="M6.3,11.7 L11.7,6.3" id="Shape"></path>
                </g>
            </g>
        </g>
    </g>
</svg>