<?xml version="1.0" encoding="UTF-8"?>
<svg width="28px" height="33px" viewBox="0 0 28 33" version="1.1" xmlns="http://www.w3.org/2000/svg" xmlns:xlink="http://www.w3.org/1999/xlink">
    <!-- Generator: Sketch 54.1 (76490) - https://sketchapp.com -->
    <title>icon-cps-white@3x</title>
    <desc>Created with Sketch.</desc>
    <g id="copay-assets" stroke="none" stroke-width="1" fill="none" fill-rule="evenodd" fill-opacity="0.23">
        <path d="M11.3142857,29.1435279 C4.94430802,28.41065 0,23.0298045 0,16.5004602 C0,9.97111592 4.94430802,4.58946103 11.3142857,3.85646796 L11.3142857,3.54957983 L11.3142857,2.11865546 L11.3142857,0 L14.1428571,0 L14.1428571,3.84054726 C16.6223937,4.09769821 18.8897077,5.06005 20.7428571,6.52025395 C20.4767309,6.78575483 18.6438329,8.64050833 18.2249652,9.05799205 C16.646706,7.91708656 14.7488385,7.30440593 12.8021736,7.30737493 C7.6951727,7.30737493 3.55615933,11.4231077 3.55615933,16.5004602 C3.55615933,21.5778127 7.6951727,25.6935455 12.8021736,25.6935455 C14.6081228,25.6963361 16.3753612,25.1696182 17.8857478,24.1784079 C17.8932444,24.1868514 17.8998038,24.1952949 17.9091745,24.2037384 C18.4245599,24.7150387 20.1037792,26.324931 20.4767309,26.6861248 C18.6202013,28.0722305 16.4300344,28.9230979 14.1428571,29.160337 L14.1428571,33 L11.3142857,33 L11.3142857,30.892437 L11.3142857,29.4615126 L11.3142857,29.1435279 Z M27.3428571,18.1731092 L23.54,18.1731092 L23.54,21.6857143 L20.7742857,21.6857143 L20.7742857,18.1731092 L16.9714286,18.1731092 L16.9714286,15.7882353 L20.7742857,15.7882353 L20.7742857,12.2571429 L23.54,12.2571429 L23.54,15.7882353 L27.3428571,15.7882353 L27.3428571,18.1731092 Z" id="icon-cps-white" fill="#FFFFFF" fill-rule="nonzero"></path>
    </g>
</svg>
