<?xml version="1.0" encoding="UTF-8"?>
<svg width="53px" height="53px" viewBox="0 0 53 53" version="1.1" xmlns="http://www.w3.org/2000/svg" xmlns:xlink="http://www.w3.org/1999/xlink">
    <!-- Generator: Sketch 54.1 (76490) - https://sketchapp.com -->
    <title>logo</title>
    <desc>Created with Sketch.</desc>
    <g id="Symbols" stroke="none" stroke-width="1" fill="none" fill-rule="evenodd">
        <g id="icon" fill="#FFB900" fill-rule="nonzero">
            <g id="logo">
                <path d="M26.457,20.053 C22.89,20.053 19.997,22.924 19.997,26.467 C19.997,30.01 22.89,32.882 26.457,32.882 C28.679597,32.8854491 30.7480889,31.7467778 31.934,29.867 C32.438,30.337 40.042,37.43 39.891,37.61 C37.09,40.932 33.035,43.27 28.47,43.79 C28.47,45.081 28.463,46.17 28.463,46.999 C28.347,47.002 25.079,46.997 25.079,46.997 C25.079,46.997 25.06,45.011 25.099,43.779 C16.09,43.079 9,35.598 9,26.473 C9,17.35 16.085,9.871 25.092,9.167 C25.092,8.34 25.082,6.015 25.082,6.015 L28.47,6 L28.469,9.178 C33.107,9.696 37.187,12.064 39.999,15.466 C40.095,15.581 32.293,22.911 32.005,23.181 C30.8331676,21.2365284 28.7272745,20.0492116 26.457,20.053 Z M26.303,36.214 C20.853,36.214 16.436,31.827 16.436,26.415 C16.436,21.003 20.853,16.616 26.303,16.616 C28.3804079,16.6128353 30.405741,17.2658976 32.09,18.482 C32.537,18.037 34.493,16.06 34.777,15.777 C32.448,13.944 29.506,12.847 26.303,12.847 C18.757,12.847 12.641,18.922 12.641,26.415 C12.641,33.908 18.757,39.982 26.303,39.982 C29.2540363,39.986909 32.1273333,39.03616 34.493,37.272 C34.095,36.887 32.303,35.171 31.753,34.626 C31.743,34.617 31.736,34.608 31.728,34.599 C30.1161719,35.6555408 28.2302414,36.2169745 26.303,36.214 Z M26.436,49.647 C39.138,49.647 49.434,39.351 49.434,26.649 C49.434,13.947 39.138,3.649 26.436,3.649 C13.734,3.649 3.436,13.947 3.436,26.649 C3.436,39.351 13.734,49.647 26.436,49.647 Z M26.43,0.137 L26.432,0.138 C41.03,0.138 52.862,11.97 52.861,26.569 C52.861,41.166 41.028,53 26.43,53 C11.834,53 4.97379915e-14,41.166 4.97379915e-14,26.57 C4.97379915e-14,11.972 11.834,0.138 26.43,0.137 Z M45,27.9019608 L40.9666667,27.9019608 L40.9666667,32 L38.0333333,32 L38.0333333,27.9019608 L34,27.9019608 L34,25.1196078 L38.0333333,25.1196078 L38.0333333,21 L40.9666667,21 L40.9666667,25.1196078 L45,25.1196078 L45,27.9019608 Z" id="Combined-Shape"></path>
            </g>
        </g>
    </g>
</svg>