<?xml version="1.0" encoding="UTF-8"?>
<svg width="10px" height="12px" viewBox="0 0 10 12" version="1.1" xmlns="http://www.w3.org/2000/svg" xmlns:xlink="http://www.w3.org/1999/xlink">
    <!-- Generator: Sketch 54.1 (76490) - https://sketchapp.com -->
    <title>icon-cps-symbol</title>
    <desc>Created with Sketch.</desc>
    <g id="copay-assets" stroke="none" stroke-width="1" fill="none" fill-rule="evenodd">
        <g id="src/assets/img" transform="translate(-129.000000, -756.000000)" fill="#5D5D5D" fill-rule="nonzero">
            <path d="M133.235294,766.55758 C130.85081,766.293401 129,764.353782 129,762.000166 C129,759.64655 130.85081,757.706639 133.235294,757.442419 L133.235294,757.32872 L133.235294,756.79308 L133.235294,756 L134.235294,756 L134.235294,757.431155 C135.186422,757.514824 136.056385,757.865171 136.764706,758.402627 C136.665086,758.498331 135.978975,759.166909 135.822179,759.317399 C135.231387,758.906139 134.520956,758.685288 133.792257,758.686358 C131.880546,758.686358 130.331183,760.169946 130.331183,762.000166 C130.331183,763.830386 131.880546,765.313974 133.792257,765.313974 C134.468281,765.31498 135.129814,765.125115 135.6952,764.767816 C135.698006,764.77086 135.700461,764.773903 135.703969,764.776947 C135.896894,764.961254 136.525479,765.541568 136.665086,765.671766 C135.954228,766.182844 135.112698,766.492056 134.235294,766.569161 L134.235294,768 L133.235294,768 L133.235294,767.211073 L133.235294,766.675433 L133.235294,766.55758 Z M138.882353,762.449827 L137.588235,762.449827 L137.588235,763.764706 L136.647059,763.764706 L136.647059,762.449827 L135.352941,762.449827 L135.352941,761.557093 L136.647059,761.557093 L136.647059,760.235294 L137.588235,760.235294 L137.588235,761.557093 L138.882353,761.557093 L138.882353,762.449827 Z" id="icon-cps-symbol"></path>
        </g>
    </g>
</svg>