<?xml version="1.0" encoding="UTF-8"?>
<svg width="79px" height="65px" viewBox="0 0 79 65" version="1.1" xmlns="http://www.w3.org/2000/svg" xmlns:xlink="http://www.w3.org/1999/xlink">
    <!-- Generator: Sketch 54.1 (76490) - https://sketchapp.com -->
    <title>sell-bitcoin</title>
    <desc>Created with Sketch.</desc>
    <g id="copay-assets" stroke="none" stroke-width="1" fill="none" fill-rule="evenodd">
        <g id="src/assets/img" transform="translate(-657.000000, -458.000000)" fill-rule="nonzero">
            <g id="sell-bitcoin" transform="translate(657.000000, 458.000000)">
                <g id="fi-bitcoin-circle-copy" fill="#2A2A2A">
                    <g id="g99">
                        <path d="M31.8,21.8 L30.1,28.7 C32.1,29.2 38.1,31.2 39.1,27.3 C40.1,23.2 33.8,22.3 31.8,21.8 L31.8,21.8 Z" id="Shape"></path>
                        <path d="M29.2,32.3 L27.3,39.9 C29.6,40.5 36.9,42.8 38,38.5 C39.1,34 31.6,32.8 29.2,32.3 L29.2,32.3 Z" id="Shape_1_"></path>
                        <path d="M39.6,1.3 C22.7,-2.9 5.6,7.4 1.3,24.3 C-2.9,41.2 7.4,58.4 24.3,62.6 C41.2,66.8 58.4,56.5 62.6,39.6 C66.8,22.6 56.6,5.5 39.6,1.3 L39.6,1.3 Z M45.9,27.4 C45.4,30.5 43.7,32 41.5,32.5 C44.6,34.1 46.2,36.6 44.7,40.9 C42.8,46.2 38.4,46.7 32.5,45.6 L31.1,51.3 L27.6,50.4 L29,44.7 C28.1,44.5 27.2,44.2 26.2,44 L24.8,49.7 L21.3,48.8 L22.7,43 C21.9,42.8 21.1,42.6 20.2,42.4 L15.7,41.3 L17.4,37.3 C17.4,37.3 20,38 19.9,37.9 C20.9,38.1 21.3,37.5 21.5,37.1 L23.8,28 C23.9,28 24.1,28.1 24.2,28.1 C24.1,28 23.9,28 23.8,28 L25.4,21.5 C25.4,20.8 25.2,19.8 23.8,19.5 C23.9,19.5 21.3,18.9 21.3,18.9 L22.2,15.2 L27,16.4 L27,16.4 C27.7,16.6 28.5,16.7 29.2,16.9 L30.6,11.2 L34.1,12.1 L32.7,17.7 C33.6,17.9 34.6,18.1 35.5,18.4 L36.9,12.9 L40.4,13.8 L39,19.5 C43.3,20.9 46.5,23.2 45.9,27.4 L45.9,27.4 Z" id="Shape_2_"></path>
                    </g>
                </g>
                <g id="Oval-356-Copy-_x2B_-ios7-redo-copy" transform="translate(47.000000, 32.000000)">
                    <g id="Group">
                        <circle id="Oval-356-Copy_1_" fill="#F6A623" cx="16" cy="16.9" r="15"></circle>
                        <path d="M16,32.9 C7.2,32.9 0,25.7 0,16.9 C0,8.1 7.2,0.9 16,0.9 C24.8,0.9 32,8.1 32,16.9 C32,25.7 24.8,32.9 16,32.9 Z M16,2.9 C8.3,2.9 2,9.2 2,16.9 C2,24.6 8.3,30.9 16,30.9 C23.7,30.9 30,24.6 30,16.9 C30,9.2 23.7,2.9 16,2.9 Z" id="Shape" fill="#FFFFFF"></path>
                    </g>
                    <g id="minus-round" transform="translate(7.000000, 14.800000)" fill="#FFFFFF">
                        <path d="M15.7,0.9 L2.2,0.9 C1.5,0.9 0.9,1.4 0.9,2.1 C0.9,2.8 1.5,3.3 2.2,3.3 L15.7,3.3 C16.4,3.3 17,2.8 17,2.1 C17,1.4 16.4,0.9 15.7,0.9 L15.7,0.9 Z" id="Shape_3_"></path>
                    </g>
                </g>
            </g>
        </g>
    </g>
</svg>