<?xml version="1.0" encoding="UTF-8"?>
<svg width="102px" height="102px" viewBox="0 0 102 102" version="1.1" xmlns="http://www.w3.org/2000/svg" xmlns:xlink="http://www.w3.org/1999/xlink">
    <!-- Generator: Sketch 54.1 (76490) - https://sketchapp.com -->
    <title>staking-enabled</title>
    <desc>Created with Sketch.</desc>
    <g id="copay-assets" stroke="none" stroke-width="1" fill="none" fill-rule="evenodd">
        <g id="src/assets/img" transform="translate(-144.000000, -671.000000)" fill="#FFB900" fill-rule="nonzero">
            <g id="staking-enabled" transform="translate(144.000000, 671.000000)">
                <path d="M36.7722,0.6668 C37.6613,-0.2223 39.1029,-0.2223 39.992,0.6668 L50.5624,11.2372 L61.1328,0.6668 C62.0219,-0.2223 63.4635,-0.2223 64.3526,0.6668 C65.2417,1.556 65.2417,2.9975 64.3526,3.8867 L52.8392,15.4001 L52.8392,47.051 L80.2513,31.2245 L84.4656,15.4969 C84.791,14.2823 86.0394,13.5615 87.254,13.887 C88.469,14.2124 89.189,15.4609 88.864,16.6754 L84.9949,31.1148 L99.434,34.9838 C100.649,35.3093 101.37,36.5577 101.044,37.7723 C100.719,38.9869 99.47,39.7076 98.256,39.3822 L82.5281,35.168 L55.1188,50.9927 L82.5292,66.8181 L98.257,62.6039 C99.471,62.2784 100.72,62.9992 101.045,64.2138 C101.371,65.4284 100.65,66.6768 99.435,67.0022 L84.9959,70.8713 L88.865,85.3107 C89.19,86.5252 88.47,87.774 87.255,88.099 C86.0405,88.425 84.7921,87.704 84.4666,86.4892 L80.2524,70.7616 L52.8392,54.9345 L52.8392,86.5956 L64.3526,98.109 C65.2417,98.998 65.2417,100.44 64.3526,101.329 C63.4635,102.218 62.0219,102.218 61.1328,101.329 L50.5624,90.758 L39.992,101.329 C39.1029,102.218 37.6613,102.218 36.7722,101.329 C35.8831,100.44 35.8831,98.998 36.7722,98.109 L48.2856,86.5956 L48.2856,54.9379 L20.871,70.7657 L16.6568,86.4934 C16.3313,87.708 15.0829,88.429 13.8683,88.103 C12.6538,87.778 11.933,86.5294 12.2584,85.3148 L16.1274,70.8755 L1.6881,67.0064 C0.4735,66.681 -0.2473,65.4326 0.0781,64.218 C0.4036,63.0034 1.652,62.2826 2.8666,62.6081 L18.5942,66.8223 L46.0118,50.9927 L18.5953,35.1638 L2.8676,39.378 C1.6531,39.7035 0.4046,38.9827 0.0792,37.7681 C-0.2463,36.5535 0.4745,35.3051 1.6891,34.9797 L16.1285,31.1106 L12.2595,16.6712 C11.934,15.4567 12.6548,14.2082 13.8694,13.8828 C15.0839,13.5574 16.3324,14.2781 16.6578,15.4927 L20.872,31.2203 L48.2856,47.0476 L48.2856,15.4001 L36.7722,3.8867 C35.8831,2.9975 35.8831,1.556 36.7722,0.6668 Z" id="Path"></path>
            </g>
        </g>
    </g>
</svg>