<svg width="128" height="128" viewBox="0 0 128 128" fill="none" xmlns="http://www.w3.org/2000/svg">
<path d="M49.7722 13.6668C50.6613 12.7777 52.1029 12.7777 52.992 13.6668L63.5624 24.2372L74.1328 13.6668C75.0219 12.7777 76.4635 12.7777 77.3526 13.6668C78.2417 14.556 78.2417 15.9975 77.3526 16.8867L65.8392 28.4001V60.051L93.2513 44.2245L97.4656 28.4969C97.791 27.2823 99.0394 26.5615 100.254 26.887C101.469 27.2124 102.189 28.4609 101.864 29.6754L97.9949 44.1148L112.434 47.9838C113.649 48.3093 114.37 49.5577 114.044 50.7723C113.719 51.9869 112.47 52.7076 111.256 52.3822L95.5281 48.168L68.1188 63.9927L95.5292 79.8181L111.257 75.6039C112.471 75.2784 113.72 75.9992 114.045 77.2138C114.371 78.4284 113.65 79.6768 112.435 80.0022L97.9959 83.8713L101.865 98.3107C102.19 99.5252 101.47 100.774 100.255 101.099C99.0405 101.425 97.7921 100.704 97.4666 99.4892L93.2524 83.7616L65.8392 67.9345V99.5956L77.3526 111.109C78.2417 111.998 78.2417 113.44 77.3526 114.329C76.4635 115.218 75.0219 115.218 74.1328 114.329L63.5624 103.758L52.992 114.329C52.1029 115.218 50.6613 115.218 49.7722 114.329C48.8831 113.44 48.8831 111.998 49.7722 111.109L61.2856 99.5956V67.9379L33.871 83.7657L29.6568 99.4934C29.3313 100.708 28.0829 101.429 26.8683 101.103C25.6538 100.778 24.933 99.5294 25.2584 98.3148L29.1274 83.8755L14.6881 80.0064C13.4735 79.681 12.7527 78.4326 13.0781 77.218C13.4036 76.0034 14.652 75.2826 15.8666 75.6081L31.5942 79.8223L59.0118 63.9927L31.5953 48.1638L15.8676 52.378C14.6531 52.7035 13.4046 51.9827 13.0792 50.7681C12.7537 49.5535 13.4745 48.3051 14.6891 47.9797L29.1285 44.1106L25.2595 29.6712C24.934 28.4567 25.6548 27.2082 26.8694 26.8828C28.0839 26.5574 29.3324 27.2781 29.6578 28.4927L33.872 44.2203L61.2856 60.0476V28.4001L49.7722 16.8867C48.8831 15.9975 48.8831 14.556 49.7722 13.6668Z" fill="#CECECE"/>
</svg>
