<svg width="35" height="35" viewBox="0 0 35 35" fill="none" xmlns="http://www.w3.org/2000/svg">
<path d="M17.5 34.5C8.1 34.5 0.5 26.9 0.5 17.5C0.5 8.1 8.1 0.5 17.5 0.5C26.9 0.5 34.5 8.1 34.5 17.5C34.5 26.9 26.9 34.5 17.5 34.5ZM17.5 1.5C8.7 1.5 1.5 8.7 1.5 17.5C1.5 26.3 8.7 33.5 17.5 33.5C26.3 33.5 33.5 26.3 33.5 17.5C33.5 8.7 26.3 1.5 17.5 1.5Z" fill="#199EE3"/>
<path d="M15.5761 9.17746C15.3395 8.94085 14.9559 8.94085 14.7193 9.17746C14.4827 9.41407 14.4827 9.79769 14.7193 10.0343L16.5827 11.8977V16.7187L12.4065 14.3076L11.7245 11.7622C11.6379 11.439 11.3056 11.2472 10.9824 11.3338C10.6592 11.4204 10.4674 11.7526 10.554 12.0758L11.1442 14.2784L8.94158 14.8686C8.61836 14.9552 8.42655 15.2874 8.51316 15.6107C8.59976 15.9339 8.93199 16.1257 9.2552 16.0391L11.8006 15.357L15.9773 17.7684L11.8005 20.1799L9.25503 19.4978C8.93181 19.4112 8.59959 19.603 8.51298 19.9263C8.42638 20.2495 8.61819 20.5817 8.9414 20.6683L11.144 21.2585L10.5538 23.4611C10.4672 23.7843 10.659 24.1165 10.9822 24.2032C11.3055 24.2898 11.6377 24.098 11.7243 23.7747L12.4063 21.2293L16.5827 18.8181V23.6408L14.7193 25.5042C14.4827 25.7408 14.4827 26.1245 14.7193 26.3611C14.9559 26.5977 15.3395 26.5977 15.5761 26.3611L17.1885 24.7486L18.801 26.3611C19.0376 26.5977 19.4212 26.5977 19.6578 26.3611C19.8944 26.1245 19.8944 25.7408 19.6578 25.5042L17.7944 23.6408V18.8175L21.9705 21.2286L22.6526 23.774C22.7392 24.0972 23.0714 24.2891 23.3946 24.2025C23.7178 24.1158 23.9096 23.7836 23.823 23.4604L23.2328 21.2578L25.4354 20.6676C25.7587 20.581 25.9505 20.2488 25.8639 19.9256C25.7773 19.6023 25.445 19.4105 25.1218 19.4971L22.5764 20.1792L18.4008 17.7684L22.5762 15.3577L25.1216 16.0398C25.4449 16.1264 25.7771 15.9346 25.8637 15.6113C25.9503 15.2881 25.7585 14.9559 25.4353 14.8693L23.2327 14.2791L23.8228 12.0765C23.9095 11.7533 23.7176 11.4211 23.3944 11.3345C23.0712 11.2479 22.739 11.4397 22.6524 11.7629L21.9703 14.3083L17.7944 16.7193V11.8977L19.6578 10.0343C19.8944 9.79769 19.8944 9.41407 19.6578 9.17746C19.4212 8.94085 19.0376 8.94085 18.801 9.17746L17.1885 10.7899L15.5761 9.17746Z" fill="#199EE3"/>
</svg>
