<?xml version="1.0" encoding="UTF-8"?>
<svg width="32px" height="19px" viewBox="0 0 32 19" version="1.1" xmlns="http://www.w3.org/2000/svg" xmlns:xlink="http://www.w3.org/1999/xlink">
    <!-- Generator: Sketch 54.1 (76490) - https://sketchapp.com -->
    <title>ico-scan</title>
    <desc>Created with Sketch.</desc>
    <g id="copay-assets" stroke="none" stroke-width="1" fill="none" fill-rule="evenodd">
        <g id="img/tabs" transform="translate(-11.000000, -181.000000)" fill="#1E222A" fill-rule="nonzero">
            <g id="ico-scan" transform="translate(11.000000, 181.000000)">
                <path d="M6.3,5.3 C5.8,5.3 5.5,4.9 5.5,4.5 L5.5,0.8 C5.5,0.3 5.9,0 6.3,0 L11,0 C11.5,0 11.8,0.4 11.8,0.8 C11.8,1.3 11.4,1.6 11,1.6 L7.1,1.6 L7.1,4.6 C7.1,4.9 6.7,5.3 6.3,5.3 Z" id="Path"></path>
                <path d="M25.7,12.7 C26.2,12.7 26.5,13.1 26.5,13.5 L26.5,17.3 C26.5,17.8 26.1,18.1 25.7,18.1 L21,18.1 C20.5,18.1 20.2,17.7 20.2,17.3 C20.2,16.8 20.6,16.5 21,16.5 L25,16.5 L25,13.5 C24.9,13.1 25.3,12.7 25.7,12.7 Z" id="Path"></path>
                <path d="M7.1,13.4 L7.1,16.4 L11.1,16.4 C11.6,16.4 11.9,16.8 11.9,17.2 C11.9,17.7 11.5,18 11.1,18 L6.4,18 C5.9,18 5.6,17.6 5.6,17.2 L5.6,13.4 C5.6,12.9 6,12.6 6.4,12.6 C6.7,12.7 7.1,13.1 7.1,13.4 Z" id="Path"></path>
                <path d="M24.9,4.6 L24.9,1.6 L20.9,1.6 C20.4,1.6 20.1,1.2 20.1,0.8 C20.1,0.3 20.5,-4.4408921e-16 20.9,-4.4408921e-16 L25.6,-4.4408921e-16 C26.1,-4.4408921e-16 26.4,0.4 26.4,0.8 L26.4,4.6 C26.4,5.1 26,5.4 25.6,5.4 C25.3,5.3 24.9,4.9 24.9,4.6 Z" id="Path"></path>
                <path d="M31.1,9.8 L0.8,9.8 C0.4,9.8 0,9.5 0,9.1 C0,8.8 0.3,8.4 0.8,8.4 L31.2,8.4 C31.6,8.4 32,8.7 32,9.1 C31.9,9.4 31.6,9.8 31.1,9.8 Z" id="Path"></path>
            </g>
        </g>
    </g>
</svg>