<?xml version="1.0" encoding="UTF-8"?>
<svg width="161px" height="161px" viewBox="0 0 161 161" version="1.1" xmlns="http://www.w3.org/2000/svg" xmlns:xlink="http://www.w3.org/1999/xlink">
    <!-- Generator: Sketch 54.1 (76490) - https://sketchapp.com -->
    <title>backup-warning</title>
    <desc>Created with Sketch.</desc>
    <defs>
        <linearGradient x1="50%" y1="0%" x2="50%" y2="89.4673583%" id="linearGradient-1">
            <stop stop-color="#868B96" offset="0%"></stop>
            <stop stop-color="#192C3A" offset="100%"></stop>
        </linearGradient>
        <linearGradient x1="50%" y1="0%" x2="50%" y2="100%" id="linearGradient-2">
            <stop stop-color="#868B96" offset="0%"></stop>
            <stop stop-color="#707D89" offset="100%"></stop>
        </linearGradient>
    </defs>
    <g id="copay-assets" stroke="none" stroke-width="1" fill="none" fill-rule="evenodd">
        <g id="img/onboarding" transform="translate(-118.000000, -354.000000)" fill-rule="nonzero">
            <g id="backup-warning" transform="translate(118.000000, 354.000000)">
                <path d="M80.5,161 C124.958923,161 161,124.958923 161,80.5 C161,36.0410776 124.958923,1.42108547e-14 80.5,1.42108547e-14 C36.0410776,1.42108547e-14 1.42108547e-14,36.0410776 1.42108547e-14,80.5 C1.42108547e-14,124.958923 36.0410776,161 80.5,161 Z" id="Oval-2" fill="url(#linearGradient-1)" opacity="0.300000012"></path>
                <path d="M102.788085,30.5779257 C102.577961,29.8829023 101.789421,29.3194946 101.034362,29.3321943 L74.3879505,34.6406954 L59.8444124,29.4730463 C59.0870448,29.485746 58.2973504,30.0503082 58.087227,30.7464862 L48.4908242,62.9380768 L112.509176,62.9380768 L102.788085,30.5779257 L102.788085,30.5779257 Z M80.5,70.3131754 C61.3706931,70.3131754 43.7976844,74.4902428 29.9838057,81.4762675 L131.016194,81.4762675 C117.188461,74.4902428 99.6293069,70.3131754 80.5,70.3131754 L80.5,70.3131754 Z" id="Shape" fill="url(#linearGradient-2)"></path>
                <path d="M101.044753,86.1128354 C93.2724983,86.1128354 86.8360272,91.8669826 85.7253756,99.3355979 C82.2733485,98.5701485 78.7000969,98.5655304 75.2469161,99.3182803 C74.0554477,91.9431812 67.6628482,86.2860141 59.9564013,86.2860141 C51.4059971,86.2860141 44.4488359,93.2431754 44.4488359,101.79358 C44.4488359,110.343983 51.4048426,117.301145 59.9564013,117.301145 C67.7609832,117.301145 74.21939,111.499662 75.2907883,103.98602 C78.7174152,103.065865 82.3241476,103.079719 85.7450019,104.028738 C86.9076077,111.437318 93.3163698,117.127966 101.045907,117.127966 C109.596312,117.127966 116.553473,110.17196 116.553473,101.620401 C116.551164,93.0699968 109.595157,86.1128354 101.044753,86.1128354 Z M59.9552467,113.136777 C53.6896454,113.136777 48.6108947,108.058026 48.6108947,101.792425 C48.6108947,95.5268235 53.6896454,90.4480727 59.9552467,90.4480727 C66.2208481,90.4480727 71.2995989,95.5268235 71.2995989,101.792425 C71.2995989,108.058026 66.2208481,113.136777 59.9552467,113.136777 Z M101.044753,112.964753 C94.7791519,112.964753 89.7004011,107.886002 89.7004011,101.620401 C89.7004011,95.3547993 94.7791519,90.2760491 101.044753,90.2760491 C107.310355,90.2760491 112.389105,95.3547993 112.389105,101.620401 C112.387951,107.886002 107.3092,112.964753 101.044753,112.964753 Z" id="Combined-Shape" fill="#868B96" opacity="0.400000006"></path>
            </g>
        </g>
    </g>
</svg>