<?xml version="1.0" encoding="UTF-8"?>
<svg width="161px" height="162px" viewBox="0 0 161 162" version="1.1" xmlns="http://www.w3.org/2000/svg" xmlns:xlink="http://www.w3.org/1999/xlink">
    <!-- Generator: Sketch 54.1 (76490) - https://sketchapp.com -->
    <title>push-notifications</title>
    <desc>Created with Sketch.</desc>
    <defs>
        <linearGradient x1="50%" y1="0%" x2="50%" y2="89.4673583%" id="linearGradient-1">
            <stop stop-color="#868B96" offset="0%"></stop>
            <stop stop-color="#192C3A" offset="100%"></stop>
        </linearGradient>
        <rect id="path-2" x="0" y="0" width="79.5222672" height="22.1619433"></rect>
    </defs>
    <g id="copay-assets" stroke="none" stroke-width="1" fill="none" fill-rule="evenodd">
        <g id="img/onboarding" transform="translate(-222.000000, -192.000000)">
            <g id="push-notifications" transform="translate(222.000000, 193.000000)">
                <path d="M80.5,161 C124.958923,161 161,124.958923 161,80.5 C161,36.0410776 124.958923,1.42108547e-14 80.5,1.42108547e-14 C36.0410776,1.42108547e-14 1.42108547e-14,36.0410776 1.42108547e-14,80.5 C1.42108547e-14,124.958923 36.0410776,161 80.5,161 Z" id="Oval-2" fill="url(#linearGradient-1)" fill-rule="nonzero" opacity="0.300000012"></path>
                <g id="Phone" transform="translate(40.412955, 0.000000)" stroke="#707D89" stroke-width="2">
                    <rect id="Combined-Shape" fill-opacity="0.65" fill="#192C3A" fill-rule="nonzero" x="0" y="0" width="79.6326337" height="143.703805" rx="8"></rect>
                    <path d="M0.414753299,121.890688 L79.2178801,121.890688" id="Line" stroke-linecap="square"></path>
                    <path d="M32.7655106,132.319838 L47.6966294,132.319838" id="Line" stroke-linecap="square"></path>
                </g>
                <ellipse id="Oval-2" stroke="#707D89" stroke-width="2" fill-opacity="0.41907269" fill="#192C3A" fill-rule="nonzero" opacity="0.945615695" cx="110.157895" cy="37.4722204" rx="30.6356275" ry="28.9985362"></ellipse>
                <g id="Group-3" transform="translate(40.412955, 21.510121)">
                    <path d="M8.28501366,12.7105263 L32.9112483,12.7105263" id="Line" stroke="#FFB900" stroke-width="3" stroke-linecap="square"></path>
                    <path d="M14.3140081,6.78981102 L28.0300613,6.78981102" id="Line" stroke="#FFB900" stroke-width="3" stroke-linecap="square"></path>
                    <g id="Rectangle-3">
                        <g id="path-2-Clipped">
                            <g>
                                <mask id="mask-3" fill="white">
                                    <use xlink:href="#path-2"></use>
                                </mask>
                                <g id="path-2"></g>
                                <rect id="path-2" stroke="#707D89" stroke-width="2" mask="url(#mask-3)" x="0" y="0" width="79.5222672" height="22.1619433"></rect>
                            </g>
                        </g>
                    </g>
                </g>
                <g id="android-notifications-none" opacity="0.900000036" transform="translate(94.281083, 18.251012)" fill="#FFFFFF" fill-rule="nonzero">
                    <path d="M15.9838999,6.24543274 C16.6235268,6.24543274 18.1431713,6.63142568 18.1431713,6.63142568 C22.260064,7.53173109 25.1578457,11.1505332 25.1578457,15.236336 L25.1578457,25.0951417 L25.1578457,26.2337303 L25.9995741,27.0407046 L26.7028657,27.714878 L5.08432504,27.714878 L5.78761664,27.0407046 L6.62934506,26.2337303 L6.62934506,25.0951417 L6.62934506,15.236336 C6.62934506,11.1506195 9.52712677,7.53173109 13.6440195,6.63142568 C13.6440195,6.63142568 15.273384,6.24543274 15.8032909,6.24543274 L15.9838999,6.24543274 Z M15.8935954,0 C14.3040552,0 13.0888273,1.16495922 13.0888273,2.68876518 L13.0888273,3.94343609 C7.75950614,5.1088262 3.73960044,9.76918016 3.73960044,15.236336 L3.73960044,25.0951417 L-6.82121026e-13,28.6801619 L-6.82121026e-13,30.4726721 L31.7871908,30.4726721 L31.7871908,28.6801619 L28.0475903,25.0951417 L28.0475903,15.236336 C28.0475903,9.76918016 24.0275943,5.1088262 18.6983634,3.94343609 L18.6983634,2.68876518 C18.6983634,1.16495922 17.4831356,0 15.8935954,0 L15.8935954,0 L15.8935954,0 Z M19.6331958,32.2651822 L12.1539046,32.2651822 C12.1539046,34.2370295 13.8365487,35.8502024 15.8935954,35.8502024 C17.950642,35.8502024 19.6331958,34.2370295 19.6331958,32.2651822 L19.6331958,32.2651822 L19.6331958,32.2651822 Z" id="Shape"></path>
                </g>
            </g>
        </g>
    </g>
</svg>