<?xml version="1.0" encoding="UTF-8"?>
<svg width="161px" height="161px" viewBox="0 0 161 161" version="1.1" xmlns="http://www.w3.org/2000/svg" xmlns:xlink="http://www.w3.org/1999/xlink">
    <!-- Generator: Sketch 54.1 (76490) - https://sketchapp.com -->
    <title>tour-phone</title>
    <desc>Created with Sketch.</desc>
    <defs>
        <linearGradient x1="50.0034413%" y1="-0.00291497976%" x2="50.0034413%" y2="75.267085%" id="linearGradient-1">
            <stop stop-color="#868B96" offset="0%"></stop>
            <stop stop-color="#192C3A" offset="100%"></stop>
        </linearGradient>
    </defs>
    <g id="copay-assets" stroke="none" stroke-width="1" fill="none" fill-rule="evenodd">
        <g id="img/onboarding" transform="translate(-19.000000, -193.000000)">
            <g id="tour-phone" transform="translate(19.000000, 193.000000)">
                <path d="M80.5,161 C124.954251,161 161,124.954251 161,80.5 C161,36.045749 124.954251,0 80.5,0 C36.045749,0 0,36.045749 0,80.5 C0,124.954251 36.045749,161 80.5,161 Z" id="Shape" fill="url(#linearGradient-1)" fill-rule="nonzero" opacity="0.3"></path>
                <g id="Group" transform="translate(44.975709, 20.858300)" stroke="#707D89" stroke-width="2">
                    <path d="M5.2145749,0 L59.837247,0 C62.7052632,0 65.0518219,2.3465587 65.0518219,5.2145749 L65.0518219,114.655466 C65.0518219,117.523482 62.7052632,119.87004 59.837247,119.87004 L5.2145749,119.87004 C2.3465587,119.87004 0,117.523482 0,114.655466 L0,5.2145749 C0,2.3465587 2.3465587,0 5.2145749,0 Z" id="Shape" fill-opacity="0.6548" fill="#192C3A" fill-rule="nonzero"></path>
                    <path d="M0.325910931,101.684211 L64.7259109,101.684211" id="Shape" stroke-linecap="square"></path>
                    <path d="M28.7453441,111.005263 L40.934413,111.005263" id="Shape" stroke-linecap="square"></path>
                </g>
                <g id="Group" transform="translate(66.485830, 43.020243)" fill="#FFB900" fill-rule="nonzero">
                    <path d="M20.7279352,0 L0,0 L0,20.7279352 L20.7279352,20.7279352 L20.7279352,0 L20.7279352,0 Z M17.7947368,17.7947368 L2.99838057,17.7947368 L2.99838057,2.93319838 L17.7947368,2.93319838 L17.7947368,17.7947368 L17.7947368,17.7947368 Z" id="Shape"></path>
                    <polygon id="Shape" points="42.9550607 59.2506073 40.0218623 59.2506073 40.0218623 65.1821862 65.1821862 65.1821862 65.1821862 62.2489879 42.9550607 62.2489879"></polygon>
                    <rect id="Rectangle-path" x="5.93157895" y="5.93157895" width="8.86477733" height="8.86477733"></rect>
                    <path d="M0,65.1821862 L20.7279352,65.1821862 L20.7279352,44.454251 L0,44.454251 L0,65.1821862 L0,65.1821862 Z M2.93319838,47.3874494 L17.7295547,47.3874494 L17.7295547,62.1838057 L2.93319838,62.1838057 L2.93319838,47.3874494 L2.93319838,47.3874494 Z" id="Shape"></path>
                    <rect id="Rectangle-path" x="5.93157895" y="50.38583" width="8.86477733" height="8.86477733"></rect>
                    <path d="M44.454251,0 L44.454251,20.7279352 L65.1821862,20.7279352 L65.1821862,0 L44.454251,0 L44.454251,0 Z M62.2489879,17.7947368 L47.4526316,17.7947368 L47.4526316,2.93319838 L62.2489879,2.93319838 L62.2489879,17.7947368 L62.2489879,17.7947368 Z" id="Shape"></path>
                    <rect id="Rectangle-path" x="50.38583" y="5.93157895" width="8.86477733" height="8.86477733"></rect>
                    <rect id="Rectangle-path" x="59.2506073" y="23.7263158" width="5.93157895" height="5.93157895"></rect>
                    <rect id="Rectangle-path" x="0" y="35.5242915" width="5.93157895" height="5.93157895"></rect>
                    <polygon id="Shape" points="31.0919028 23.7263158 19.2287449 23.7263158 19.2287449 26.6595142 34.0902834 26.6595142 34.0902834 20.7279352 34.0902834 17.7947368 37.0234818 17.7947368 37.0234818 11.8631579 34.0902834 11.8631579 31.0919028 11.8631579 28.1587045 11.8631579 28.1587045 5.93157895 31.0919028 5.93157895 31.0919028 8.86477733 41.4558704 8.86477733 41.4558704 0 38.5226721 0 38.5226721 5.93157895 34.0902834 5.93157895 34.0902834 0 32.5910931 0 26.6595142 0 25.1603239 0 25.1603239 14.7963563 31.0919028 14.7963563 31.0919028 17.7947368 25.1603239 17.7947368 25.1603239 20.7279352 31.0919028 20.7279352"></polygon>
                    <polygon id="Shape" points="4.43238866 32.5910931 10.3639676 32.5910931 13.3623482 32.5910931 14.7963563 32.5910931 14.7963563 35.5242915 8.86477733 35.5242915 8.86477733 38.5226721 14.7963563 38.5226721 14.7963563 41.4558704 26.6595142 41.4558704 26.6595142 38.5226721 17.7947368 38.5226721 17.7947368 35.5242915 17.7947368 29.6578947 13.3623482 29.6578947 13.3623482 25.1603239 10.3639676 25.1603239 10.3639676 29.6578947 7.43076923 29.6578947 7.43076923 23.7263158 0 23.7263158 0 26.6595142 4.43238866 26.6595142"></polygon>
                    <polygon id="Shape" points="32.5910931 59.2506073 32.5910931 51.8198381 26.6595142 51.8198381 26.6595142 45.9534413 23.7263158 45.9534413 23.7263158 54.8182186 29.6578947 54.8182186 29.6578947 59.2506073 23.7263158 59.2506073 23.7263158 62.2489879 29.6578947 62.2489879 29.6578947 65.1821862 37.0234818 65.1821862 37.0234818 62.2489879 32.5910931 62.2489879"></polygon>
                    <polygon id="Shape" points="47.3874494 29.6578947 41.4558704 29.6578947 41.4558704 22.2271255 38.5226721 22.2271255 38.5226721 32.5910931 53.3190283 32.5910931 53.3190283 29.6578947 50.38583 29.6578947 50.38583 26.6595142 54.8182186 26.6595142 54.8182186 23.7263158 50.38583 23.7263158 47.3874494 23.7263158 44.454251 23.7263158 44.454251 26.6595142 47.3874494 26.6595142"></polygon>
                    <polygon id="Shape" points="44.454251 56.3174089 48.8866397 56.3174089 48.8866397 59.2506073 54.8182186 59.2506073 54.8182186 56.3174089 54.8182186 53.3190283 54.8182186 48.8866397 48.8866397 48.8866397 48.8866397 53.3190283 44.454251 53.3190283 44.454251 48.8866397 41.4558704 48.8866397 41.4558704 53.3190283 38.5226721 53.3190283 38.5226721 41.4558704 35.5242915 41.4558704 35.5242915 38.5226721 32.5910931 38.5226721 32.5910931 29.6578947 22.2271255 29.6578947 22.2271255 35.5242915 25.1603239 35.5242915 25.1603239 32.5910931 29.6578947 32.5910931 29.6578947 38.5226721 29.6578947 44.454251 35.5242915 44.454251 35.5242915 53.3190283 35.5242915 56.3174089 38.5226721 56.3174089 41.4558704 56.3174089"></polygon>
                    <polygon id="Shape" points="62.2489879 37.0234818 57.751417 37.0234818 54.8182186 37.0234818 47.3874494 37.0234818 47.3874494 42.9550607 44.454251 42.9550607 44.454251 37.0234818 41.4558704 37.0234818 41.4558704 45.9534413 50.38583 45.9534413 50.38583 40.0218623 54.8182186 40.0218623 54.8182186 44.454251 57.751417 44.454251 57.751417 40.0218623 62.2489879 40.0218623 62.2489879 48.8866397 57.751417 48.8866397 57.751417 57.751417 65.1821862 57.751417 65.1821862 54.8182186 60.7497976 54.8182186 60.7497976 51.8198381 65.1821862 51.8198381 65.1821862 40.0218623 65.1821862 37.0234818 65.1821862 32.5910931 62.2489879 32.5910931"></polygon>
                </g>
            </g>
        </g>
    </g>
</svg>