<?xml version="1.0" encoding="UTF-8"?>
<svg width="161px" height="161px" viewBox="0 0 161 161" version="1.1" xmlns="http://www.w3.org/2000/svg" xmlns:xlink="http://www.w3.org/1999/xlink">
    <!-- Generator: Sketch 54.1 (76490) - https://sketchapp.com -->
    <title>tour-control</title>
    <desc>Created with Sketch.</desc>
    <defs>
        <linearGradient x1="50%" y1="0%" x2="50%" y2="89.4672065%" id="linearGradient-1">
            <stop stop-color="#868B96" offset="0%"></stop>
            <stop stop-color="#192C3A" offset="100%"></stop>
        </linearGradient>
    </defs>
    <g id="copay-assets" stroke="none" stroke-width="1" fill="none" fill-rule="evenodd">
        <g id="img/onboarding" transform="translate(-19.000000, -16.000000)">
            <g id="tour-control" transform="translate(19.000000, 16.000000)">
                <path d="M80.5,161 C124.958814,161 161,124.958814 161,80.5 C161,36.0410559 124.958814,0 80.5,0 C36.0410559,0 0,36.0410559 0,80.5 C0,124.958814 36.0410559,161 80.5,161 Z" id="Path" fill="url(#linearGradient-1)" fill-rule="nonzero" opacity="0.3"></path>
                <path d="M100.922231,15.6437247 L46.2793522,15.6437247 C43.3994077,15.6437247 41.0647773,17.9783551 41.0647773,20.8582996 L41.0647773,130.282895 C41.0647773,133.163296 43.3994077,135.49747 46.2793522,135.49747 L100.922231,135.49747 C103.80198,135.49747 106.136806,133.163296 106.136806,130.282895 L106.136806,20.8582996 C106.136806,17.9783551 103.80198,15.6437247 100.922231,15.6437247 Z" id="Path" stroke="#707D89" stroke-width="2" fill-opacity="0.65" fill="#192C3A" fill-rule="nonzero"></path>
                <path d="M41.4037247,117.741842 L105.797858,117.741842" id="Path" stroke="#707D89" stroke-width="2" stroke-linecap="square"></path>
                <path d="M67.8390121,126.619656 L80.0404656,126.619656" id="Path" stroke="#707D89" stroke-width="2" stroke-linecap="square"></path>
                <path d="M127.603907,104.062057 L84.0882794,104.062057 C82.6484049,104.062057 81.4809919,105.22947 81.4809919,106.669344 L81.4809919,144.293806 C81.4809919,145.73368 82.6484049,146.901093 84.0882794,146.901093 L127.603907,146.901093 C129.044433,146.901093 130.211194,145.73368 130.211194,144.293806 L130.211194,106.669344 C130.211194,105.22947 129.044433,104.062057 127.603907,104.062057 Z" id="Path" stroke="#FFB900" stroke-width="2" fill="#192C3A" fill-rule="nonzero"></path>
                <path d="M93.6635425,104.062057 L93.6635425,91.8227976 C93.6635425,85.0907814 99.1460162,79.5828866 105.846093,79.5828866 C112.546822,79.5828866 118.028644,85.0907814 118.028644,91.8227976 L118.028644,104.062057" id="Path" stroke="#FFB900" stroke-width="2"></path>
                <path d="M105.353968,122.421923 L105.353968,128.541227 L105.353968,122.421923 Z" id="Path" fill="#F9F9F9" fill-rule="nonzero"></path>
                <path d="M105.353968,122.421923 L105.353968,128.541227" id="Path" stroke="#FFB900" stroke-width="2"></path>
                <path d="M72.3142857,82.1435279 C65.944308,81.41065 61,76.0298045 61,69.5004602 C61,62.9711159 65.944308,57.589461 72.3142857,56.856468 L72.3142857,56.5495798 L72.3142857,55.1186555 L72.3142857,53 L75.1428571,53 L75.1428571,56.8405473 C77.6223937,57.0976982 79.8897077,58.06005 81.7428571,59.5202539 C81.4767309,59.7857548 79.6438329,61.6405083 79.2249652,62.0579921 C77.646706,60.9170866 75.7488385,60.3044059 73.8021736,60.3073749 C68.6951727,60.3073749 64.5561593,64.4231077 64.5561593,69.5004602 C64.5561593,74.5778127 68.6951727,78.6935455 73.8021736,78.6935455 C75.6081228,78.6963361 77.3753612,78.1696182 78.8857478,77.1784079 C78.8932444,77.1868514 78.8998038,77.1952949 78.9091745,77.2037384 C79.4245599,77.7150387 81.1037792,79.324931 81.4767309,79.6861248 C79.6202013,81.0722305 77.4300344,81.9230979 75.1428571,82.160337 L75.1428571,86 L72.3142857,86 L72.3142857,83.892437 L72.3142857,82.4615126 L72.3142857,82.1435279 Z M88.3428571,71.1731092 L84.54,71.1731092 L84.54,74.6857143 L81.7742857,74.6857143 L81.7742857,71.1731092 L77.9714286,71.1731092 L77.9714286,68.7882353 L81.7742857,68.7882353 L81.7742857,65.2571429 L84.54,65.2571429 L84.54,68.7882353 L88.3428571,68.7882353 L88.3428571,71.1731092 Z" id="Combined-Shape" fill="#FFFFFF" fill-rule="nonzero"></path>
            </g>
        </g>
    </g>
</svg>