<?xml version="1.0" encoding="UTF-8"?>
<svg width="247px" height="161px" viewBox="0 0 247 161" version="1.1" xmlns="http://www.w3.org/2000/svg" xmlns:xlink="http://www.w3.org/1999/xlink">
    <!-- Generator: Sketch 54.1 (76490) - https://sketchapp.com -->
    <title>tour-currency</title>
    <desc>Created with Sketch.</desc>
    <defs>
        <linearGradient x1="50.0034413%" y1="0.00943319838%" x2="50.0034413%" y2="89.4694332%" id="linearGradient-1">
            <stop stop-color="#868B96" offset="0%"></stop>
            <stop stop-color="#192C3A" offset="100%"></stop>
        </linearGradient>
        <linearGradient x1="50%" y1="100.020333%" x2="50%" y2="0.0203333333%" id="linearGradient-2">
            <stop stop-color="#192C3A" offset="0%"></stop>
            <stop stop-color="#192C3A" offset="100%"></stop>
        </linearGradient>
    </defs>
    <g id="copay-assets" stroke="none" stroke-width="1" fill="none" fill-rule="evenodd">
        <g id="img/onboarding" transform="translate(-222.000000, -16.000000)">
            <g id="tour-currency" transform="translate(222.000000, 16.000000)">
                <path d="M123.82672,161 C168.39127,161 204.526455,124.954251 204.526455,80.5 C204.526455,36.045749 168.39127,0 123.82672,0 C79.2621693,0 43.1269841,36.045749 43.1269841,80.5 C43.1269841,124.954251 79.2621693,161 123.82672,161 Z" id="Shape" fill="url(#linearGradient-1)" fill-rule="nonzero" opacity="0.3"></path>
                <polygon id="Shape" fill="url(#linearGradient-2)" fill-rule="nonzero" opacity="0.3" points="36.7886243 82.9769231 65.1478836 63.7481781 92.8537037 78.1534413 121.931746 52.6020243 146.958466 52.6020243 163.163757 30.9615385 184.792593 43.8024291 211.191534 36.5672065 246.346561 22.8137652 246.346561 120.587045 99.3880952 120.587045 1.56825397 120.587045 1.30687831 87.0182186"></polygon>
                <g id="Group" opacity="0.3" transform="translate(49.661376, 39.761134)" fill="#F4F4F4" fill-rule="nonzero">
                    <path d="M147.981217,80.8259109 L147.481217,80.8259109 L147.481217,78.2186235 L147.981217,78.2186235 L147.981217,80.8259109 Z M147.981217,75.611336 L147.481217,75.611336 L147.481217,73.0040486 L147.981217,73.0040486 L147.981217,75.611336 Z M147.981217,70.3967611 L147.481217,70.3967611 L147.481217,67.7894737 L147.981217,67.7894737 L147.981217,70.3967611 Z M147.981217,65.1821862 L147.481217,65.1821862 L147.481217,62.5748988 L147.981217,62.5748988 L147.981217,65.1821862 Z M147.981217,59.9676113 L147.481217,59.9676113 L147.481217,57.3603239 L147.981217,57.3603239 L147.981217,59.9676113 Z M147.981217,54.7530364 L147.481217,54.7530364 L147.481217,52.145749 L147.981217,52.145749 L147.981217,54.7530364 Z M147.981217,49.5384615 L147.481217,49.5384615 L147.481217,46.9311741 L147.981217,46.9311741 L147.981217,49.5384615 Z M147.981217,44.3238866 L147.481217,44.3238866 L147.481217,41.7165992 L147.981217,41.7165992 L147.981217,44.3238866 Z M147.981217,39.1093117 L147.481217,39.1093117 L147.481217,36.5020243 L147.981217,36.5020243 L147.981217,39.1093117 Z M147.981217,33.8947368 L147.481217,33.8947368 L147.481217,31.2874494 L147.981217,31.2874494 L147.981217,33.8947368 Z M147.981217,28.6801619 L147.481217,28.6801619 L147.481217,26.0728745 L147.981217,26.0728745 L147.981217,28.6801619 Z M147.981217,23.465587 L147.481217,23.465587 L147.481217,20.8582996 L147.981217,20.8582996 L147.981217,23.465587 Z M147.981217,18.2510121 L147.481217,18.2510121 L147.481217,15.6437247 L147.981217,15.6437247 L147.981217,18.2510121 Z M147.981217,13.0364372 L147.481217,13.0364372 L147.481217,10.4291498 L147.981217,10.4291498 L147.981217,13.0364372 Z M147.981217,7.82186235 L147.481217,7.82186235 L147.481217,5.2145749 L147.981217,5.2145749 L147.981217,7.82186235 Z M147.981217,2.60728745 L147.481217,2.60728745 L147.481217,0 L147.981217,0 L147.981217,2.60728745 Z" id="Shape"></path>
                    <path d="M98.9732804,80.8259109 L98.4732804,80.8259109 L98.4732804,78.2186235 L98.9732804,78.2186235 L98.9732804,80.8259109 Z M98.9732804,75.611336 L98.4732804,75.611336 L98.4732804,73.0040486 L98.9732804,73.0040486 L98.9732804,75.611336 Z M98.9732804,70.3967611 L98.4732804,70.3967611 L98.4732804,67.7894737 L98.9732804,67.7894737 L98.9732804,70.3967611 Z M98.9732804,65.1821862 L98.4732804,65.1821862 L98.4732804,62.5748988 L98.9732804,62.5748988 L98.9732804,65.1821862 Z M98.9732804,59.9676113 L98.4732804,59.9676113 L98.4732804,57.3603239 L98.9732804,57.3603239 L98.9732804,59.9676113 Z M98.9732804,54.7530364 L98.4732804,54.7530364 L98.4732804,52.145749 L98.9732804,52.145749 L98.9732804,54.7530364 Z M98.9732804,49.5384615 L98.4732804,49.5384615 L98.4732804,46.9311741 L98.9732804,46.9311741 L98.9732804,49.5384615 Z M98.9732804,44.3238866 L98.4732804,44.3238866 L98.4732804,41.7165992 L98.9732804,41.7165992 L98.9732804,44.3238866 Z M98.9732804,39.1093117 L98.4732804,39.1093117 L98.4732804,36.5020243 L98.9732804,36.5020243 L98.9732804,39.1093117 Z M98.9732804,33.8947368 L98.4732804,33.8947368 L98.4732804,31.2874494 L98.9732804,31.2874494 L98.9732804,33.8947368 Z M98.9732804,28.6801619 L98.4732804,28.6801619 L98.4732804,26.0728745 L98.9732804,26.0728745 L98.9732804,28.6801619 Z M98.9732804,23.465587 L98.4732804,23.465587 L98.4732804,20.8582996 L98.9732804,20.8582996 L98.9732804,23.465587 Z M98.9732804,18.2510121 L98.4732804,18.2510121 L98.4732804,15.6437247 L98.9732804,15.6437247 L98.9732804,18.2510121 Z M98.9732804,13.0364372 L98.4732804,13.0364372 L98.4732804,10.9506073 L98.9732804,10.9506073 L98.9732804,13.0364372 Z" id="Shape"></path>
                    <path d="M49.9653439,80.8259109 L49.4653439,80.8259109 L49.4653439,78.2186235 L49.9653439,78.2186235 L49.9653439,80.8259109 Z M49.9653439,75.611336 L49.4653439,75.611336 L49.4653439,73.0040486 L49.9653439,73.0040486 L49.9653439,75.611336 Z M49.9653439,70.3967611 L49.4653439,70.3967611 L49.4653439,67.7894737 L49.9653439,67.7894737 L49.9653439,70.3967611 Z M49.9653439,65.1821862 L49.4653439,65.1821862 L49.4653439,62.5748988 L49.9653439,62.5748988 L49.9653439,65.1821862 Z M49.9653439,59.9676113 L49.4653439,59.9676113 L49.4653439,57.3603239 L49.9653439,57.3603239 L49.9653439,59.9676113 Z M49.9653439,54.7530364 L49.4653439,54.7530364 L49.4653439,52.145749 L49.9653439,52.145749 L49.9653439,54.7530364 Z M49.9653439,49.5384615 L49.4653439,49.5384615 L49.4653439,46.9311741 L49.9653439,46.9311741 L49.9653439,49.5384615 Z M49.9653439,44.3238866 L49.4653439,44.3238866 L49.4653439,41.7165992 L49.9653439,41.7165992 L49.9653439,44.3238866 Z M49.9653439,39.1093117 L49.4653439,39.1093117 L49.4653439,36.5020243 L49.9653439,36.5020243 L49.9653439,39.1093117 Z M49.9653439,33.8947368 L49.4653439,33.8947368 L49.4653439,32.5910931 L49.9653439,32.5910931 L49.9653439,33.8947368 Z" id="Shape"></path>
                    <path d="M0.957407407,80.8259109 L0.457407407,80.8259109 L0.457407407,78.2186235 L0.957407407,78.2186235 L0.957407407,80.8259109 Z M0.957407407,75.611336 L0.457407407,75.611336 L0.457407407,73.0040486 L0.957407407,73.0040486 L0.957407407,75.611336 Z M0.957407407,70.3967611 L0.457407407,70.3967611 L0.457407407,67.7894737 L0.957407407,67.7894737 L0.957407407,70.3967611 Z M0.957407407,65.1821862 L0.457407407,65.1821862 L0.457407407,62.5748988 L0.957407407,62.5748988 L0.957407407,65.1821862 Z M0.957407407,59.9676113 L0.457407407,59.9676113 L0.457407407,57.3603239 L0.957407407,57.3603239 L0.957407407,59.9676113 Z M0.957407407,54.7530364 L0.457407407,54.7530364 L0.457407407,52.145749 L0.957407407,52.145749 L0.957407407,54.7530364 Z M0.957407407,49.5384615 L0.457407407,49.5384615 L0.457407407,46.9311741 L0.957407407,46.9311741 L0.957407407,49.5384615 Z M0.957407407,44.3238866 L0.457407407,44.3238866 L0.457407407,41.7165992 L0.957407407,41.7165992 L0.957407407,44.3238866 Z M0.957407407,39.1093117 L0.457407407,39.1093117 L0.457407407,36.5020243 L0.957407407,36.5020243 L0.957407407,39.1093117 Z" id="Shape"></path>
                </g>
                <path d="M1.30687831,87.6700405 C0.98015873,87.6700405 0.718783069,87.4093117 0.653439153,87.0834008 C0.588095238,86.7574899 0.849470899,86.4315789 1.24153439,86.3663968 L36.5925926,82.3251012 L64.7558201,63.2267206 C64.9518519,63.0963563 65.2132275,63.0963563 65.4092593,63.1615385 L92.7230159,77.3712551 L121.474339,52.145749 C121.605026,52.0153846 121.735714,52.0153846 121.931746,52.0153846 L146.631746,52.0153846 L162.641005,30.6356275 C162.837037,30.3748988 163.229101,30.3097166 163.490476,30.440081 L184.857937,43.1506073 L210.930159,35.9805668 L246.085185,22.2271255 C246.411905,22.0967611 246.803968,22.2923077 246.934656,22.6182186 C247.065344,22.9441296 246.869312,23.3352227 246.542593,23.465587 L211.387566,37.2190283 L211.322222,37.2190283 L184.92328,44.454251 C184.727249,44.5194332 184.596561,44.454251 184.400529,44.3890688 L163.359788,31.8740891 L147.481217,53.0582996 C147.350529,53.2538462 147.154497,53.3190283 146.958466,53.3190283 L122.193122,53.3190283 L93.3111111,78.740081 C93.1150794,78.9356275 92.7883598,78.9356275 92.592328,78.8052632 L65.2132275,64.5303644 L37.1806878,83.5635628 C37.1153439,83.6287449 36.9846561,83.6287449 36.9193122,83.6939271 L1.43756614,87.7352227 C1.37222222,87.6700405 1.30687831,87.6700405 1.30687831,87.6700405 Z" id="Shape" fill="#FFB900" fill-rule="nonzero"></path>
                <g id="Group" transform="translate(120.886243, 24.769231)">
                    <path d="M2.94047619,0.325910931 L2.94047619,95.4919028" id="Line_1_" stroke="#F4F4F4" stroke-width="2" opacity="0.64" stroke-linecap="square"></path>
                    <ellipse id="dot" stroke="#FFFFFF" stroke-width="3" fill="#2A2A2A" fill-rule="nonzero" cx="2.94047619" cy="27.0506073" rx="2.94047619" ry="2.93319838"></ellipse>
                </g>
            </g>
        </g>
    </g>
</svg>