<svg width="84" height="84" viewBox="0 0 84 84" fill="none" xmlns="http://www.w3.org/2000/svg">
<path d="M42 84C65.196 84 84 65.196 84 42C84 18.804 65.196 0 42 0C18.804 0 0 18.804 0 42C0 65.196 18.804 84 42 84Z" fill="#292F2F"/>
<g filter="url(#filter0_i)">
<path d="M40.6743 19.3983C42.1576 18.7528 43.2151 20.1208 44.1296 21.0349C45.7629 22.4204 47.3159 23.9001 48.7889 25.4531C49.6334 26.3743 49.2914 28.0599 48.1431 28.5728C47.2601 29.0544 46.1816 28.6915 45.5047 28.0214C43.7281 26.3183 42.0285 24.5317 40.1823 22.9054C39.0376 21.9702 39.2714 19.9393 40.6743 19.3983" fill="#02E8B0"/>
<path d="M56.8541 24.1166C57.8594 23.5756 59.4681 24.0155 59.7475 25.2124C60.1733 26.2769 59.4893 27.3306 58.7388 28.0391C57.095 29.6618 55.4965 31.3299 53.898 32.9979C53.3153 33.703 52.2892 33.8915 51.4654 33.5111C50.2754 33.0188 49.9543 31.2322 50.8513 30.3283C52.8685 28.2764 54.6485 25.9766 56.8541 24.1166Z" fill="#02E8B0"/>
<path d="M24.7281 24.448C25.7752 23.8164 27.07 24.2351 27.8448 25.0937C29.5863 26.8523 31.3837 28.552 33.1462 30.2828C34.3119 31.3612 33.4987 33.6435 31.8724 33.6505C30.5113 33.86 29.7887 32.5128 28.8778 31.7765C27.2794 30.4538 25.8171 28.9812 24.3687 27.498C23.5484 26.6536 23.7929 25.1042 24.7281 24.448" fill="#02E8B0"/>
<path d="M26.0788 34.844C27.8343 34.1668 29.5479 36.3795 28.452 37.9043C27.1572 39.5935 25.4714 40.9509 24.058 42.5458C23.2238 43.4042 22.4456 44.7233 21.0565 44.5558C19.4301 44.493 18.6135 42.2316 19.7966 41.136C21.9325 39.091 23.6287 36.5049 26.0788 34.844Z" fill="#02E8B0"/>
<path d="M61.6741 39.7362C62.8816 38.9475 64.7035 39.8444 64.742 41.2997C64.9198 42.6676 63.5622 43.3899 62.8154 44.3078C61.4997 45.8921 60.0549 47.3684 58.5645 48.7887C57.4756 49.818 55.4409 49.0956 55.2455 47.6057C54.9907 46.0665 56.4355 45.1104 57.3465 44.1264C58.8542 42.7268 60.128 41.0764 61.6741 39.7362" fill="#02E8B0"/>
<path d="M30.6578 50.558C31.8304 49.8566 33.6105 50.6906 33.6384 52.1143C33.8547 53.4893 32.4971 54.2187 31.7538 55.1366C30.4414 56.7244 28.9792 58.1795 27.5028 59.6174C26.5431 60.5875 24.4978 60.1197 24.2256 58.7275C23.7614 57.384 24.9027 56.2986 25.7717 55.4539C27.4575 53.8765 28.9233 52.0724 30.6578 50.558Z" fill="#02E8B0"/>
<path d="M51.5006 50.5057C52.1498 50.2827 52.9734 50.2651 53.5212 50.7327C55.5526 52.6626 57.7129 54.4563 59.6219 56.5152C60.2117 57.112 60.2641 58.1136 59.8733 58.8324C59.3218 60.1236 57.4301 60.155 56.5122 59.2406C54.6591 57.4922 52.8791 55.6568 51.0153 53.9153C49.8882 53.0394 50.1533 51.0119 51.5006 50.5057" fill="#02E8B0"/>
<path d="M35.8615 55.4401C36.8282 54.9166 37.9625 55.4123 38.6571 56.1485C40.409 57.8864 42.161 59.6242 43.9794 61.2925C45.1765 62.4301 44.3668 64.7369 42.6811 64.7542C41.32 64.9148 40.6114 63.5643 39.6971 62.8245C38.1091 61.5088 36.6363 60.0605 35.2124 58.5703C34.3538 57.6525 34.7028 55.9462 35.8615 55.4401" fill="#02E8B0"/>
<path d="M32.7545 21.1531C32.7545 22.2551 31.8611 23.1483 30.7591 23.1483C29.657 23.1483 28.7637 22.2551 28.7637 21.1531C28.7637 20.0512 29.657 19.1578 30.7591 19.1578C31.8611 19.1578 32.7545 20.0512 32.7545 21.1531Z" fill="#02E8B0"/>
<path d="M38.57 26.4601C38.57 27.5621 37.6767 28.4553 36.5747 28.4553C35.4726 28.4553 34.5793 27.5621 34.5793 26.4601C34.5793 25.3582 35.4726 24.4648 36.5747 24.4648C37.6767 24.4648 38.57 25.3582 38.57 26.4601Z" fill="#02E8B0"/>
<path d="M22.9908 31.3352C22.9908 32.4372 22.0974 33.3304 20.9953 33.3304C19.8934 33.3304 19 32.4372 19 31.3352C19 30.2334 19.8934 29.3402 20.9953 29.3402C22.0974 29.3402 22.9908 30.2334 22.9908 31.3352Z" fill="#02E8B0"/>
<path d="M54.6667 20.9953C54.6667 22.0971 53.7734 22.9904 52.6715 22.9904C51.5693 22.9904 50.676 22.0971 50.676 20.9953C50.676 19.8933 51.5693 19.0001 52.6715 19.0001C53.7734 19.0001 54.6667 19.8933 54.6667 20.9953Z" fill="#02E8B0"/>
<path d="M65 30.8346C65 31.9364 64.1067 32.8298 63.0047 32.8298C61.9028 32.8298 61.0093 31.9364 61.0093 30.8346C61.0093 29.7328 61.9028 28.8393 63.0047 28.8393C64.1067 28.8393 65 29.7328 65 30.8346Z" fill="#02E8B0"/>
<path d="M59.5468 36.5678C59.5468 37.6697 58.6533 38.5629 57.5514 38.5629C56.4495 38.5629 55.5562 37.6697 55.5562 36.5678C55.5562 35.466 56.4495 34.5728 57.5514 34.5728C58.6533 34.5728 59.5468 35.466 59.5468 36.5678Z" fill="#02E8B0"/>
<path d="M64.9909 52.6818C64.9909 53.7837 64.0976 54.6769 62.9955 54.6769C61.8935 54.6769 61.0002 53.7837 61.0002 52.6818C61.0002 51.5798 61.8935 50.6866 62.9955 50.6866C64.0976 50.6866 64.9909 51.5798 64.9909 52.6818Z" fill="#02E8B0"/>
<path d="M49.4291 57.5467C49.4291 58.6487 48.5356 59.5419 47.4337 59.5419C46.3317 59.5419 45.4382 58.6487 45.4382 57.5467C45.4382 56.4448 46.3317 55.5514 47.4337 55.5514C48.5356 55.5514 49.4291 56.4448 49.4291 57.5467" fill="#02E8B0"/>
<path d="M55.1701 63.0047C55.1701 64.1068 54.2766 65 53.1746 65C52.0725 65 51.1792 64.1068 51.1792 63.0047C51.1792 61.903 52.0725 61.0097 53.1746 61.0097C54.2766 61.0097 55.1701 61.903 55.1701 63.0047Z" fill="#02E8B0"/>
<path d="M33.3179 63.0045C33.3179 64.1063 32.4246 64.9995 31.3226 64.9995C30.2205 64.9995 29.3271 64.1063 29.3271 63.0045C29.3271 61.9025 30.2205 61.0093 31.3226 61.0093C32.4246 61.0093 33.3179 61.9025 33.3179 63.0045" fill="#02E8B0"/>
<path d="M28.4515 47.3775C28.4515 48.4793 27.5581 49.3726 26.4562 49.3726C25.3541 49.3726 24.4607 48.4793 24.4607 47.3775C24.4607 46.2754 25.3541 45.3822 26.4562 45.3822C27.5581 45.3822 28.4515 46.2754 28.4515 47.3775Z" fill="#02E8B0"/>
<path d="M22.9908 53.1766C22.9908 54.2784 22.0974 55.1716 20.9953 55.1716C19.8934 55.1716 19 54.2784 19 53.1766C19 52.0746 19.8934 51.1813 20.9953 51.1813C22.0974 51.1813 22.9908 52.0746 22.9908 53.1766Z" fill="#02E8B0"/>
</g>
<defs>
<filter id="filter0_i" x="19" y="19.0001" width="46" height="45.9998" filterUnits="userSpaceOnUse" color-interpolation-filters="sRGB">
<feFlood flood-opacity="0" result="BackgroundImageFix"/>
<feBlend mode="normal" in="SourceGraphic" in2="BackgroundImageFix" result="shape"/>
<feColorMatrix in="SourceAlpha" type="matrix" values="0 0 0 0 0 0 0 0 0 0 0 0 0 0 0 0 0 0 127 0" result="hardAlpha"/>
<feOffset dy="-1"/>
<feComposite in2="hardAlpha" operator="arithmetic" k2="-1" k3="1"/>
<feColorMatrix type="matrix" values="0 0 0 0 0 0 0 0 0 1 0 0 0 0 0.756522 0 0 0 0.7 0"/>
<feBlend mode="normal" in2="shape" result="effect1_innerShadow"/>
</filter>
</defs>
</svg>
