<svg width="186" height="68" viewBox="0 0 186 68" fill="none" xmlns="http://www.w3.org/2000/svg">
<g clip-path="url(#clip0)">
<path d="M25.7824 25.6954C31.4292 25.6613 37.0795 25.7536 42.723 25.6475C42.7915 26.4911 42.8326 27.3311 42.8188 28.1747C42.7674 33.0175 42.8735 37.8639 42.7605 42.7068C37.1002 42.669 31.4394 42.7068 25.7791 42.6897C25.7722 37.0236 25.7689 31.3612 25.7824 25.6954ZM68.3786 14.2372C67.6766 10.1868 65.4439 6.35169 62.2044 3.80056C59.1979 1.33481 55.3453 0.00951557 51.4585 0.00622031C39.9319 0.00262549 28.3954 -0.00755938 16.8688 0.00951605C10.852 0.0778177 5.16735 3.55102 2.2396 8.76951C0.613066 11.5702 0.00330413 14.7189 0 17.9291C0.00690863 28.4003 -0.00330365 38.878 0.0033046 49.3491C-0.0171209 51.7843 0.0889101 54.1236 0.852764 56.4597C2.55109 61.8729 7.13301 66.2547 12.6052 67.781C10.9514 66.4662 10.2185 64.6358 9.68079 62.6548C8.5679 58.3107 8.4823 53.7992 8.66042 49.3491C8.6433 38.8747 8.66733 28.4003 8.6466 17.9291C8.66372 16.126 8.79739 14.432 9.72194 12.8371C11.1463 10.2928 13.9239 8.59186 16.8688 8.62961C27.8235 8.62272 38.7917 8.6329 49.7463 8.62631C51.4005 8.62961 52.9039 8.50679 54.486 9.10443C57.1157 9.97497 59.2012 12.3212 59.7765 15.0194C60.1018 16.6041 60.0162 18.3629 60.0195 19.9785V50.7154C60.0195 52.225 59.8519 53.7 59.2013 55.0799C57.8589 57.8805 54.9551 59.8235 51.8081 59.7657C43.1372 59.7792 34.4563 59.7621 25.7857 59.7723C25.7689 56.9549 25.7722 54.1338 25.7824 51.3131C32.8607 51.3131 39.9355 51.3026 47.0138 51.32C48.5376 51.4018 50.2909 50.6334 50.9929 49.2332C51.39 48.5193 51.4552 47.7575 51.4723 46.9618C51.4654 38.4205 51.469 29.8825 51.469 21.3409C51.5375 19.7598 50.7703 18.3494 49.3664 17.5978C48.1952 16.9184 46.9417 17.0924 45.6372 17.0685C37.5349 17.0891 29.4227 17.0583 21.3239 17.0855C19.0053 17.0274 17.0742 19.039 17.146 21.3409C17.1118 33.6119 17.146 45.9511 17.1289 58.2289C17.1941 60.6671 17.1154 62.9792 18.5328 65.09C19.6082 66.8352 21.4267 67.7196 23.3818 68.1057C25.6935 68.4778 27.9055 68.3891 30.2274 68.3924C37.3054 68.396 44.3804 68.3891 51.4585 68.3993C54.9789 68.4301 58.4068 67.2927 61.297 65.3083C64.3959 63.0304 66.8001 59.8885 67.9061 56.1865C68.6697 53.6833 68.6559 51.2517 68.6697 48.6661C68.6697 38.8747 68.6733 29.0866 68.6697 19.2952C68.6559 17.6149 68.639 15.9004 68.3786 14.2372" fill="#45D492"/>
<path d="M95.288 33.9238C95.288 31.6135 93.7431 30.166 91.6123 30.166C89.4814 30.166 87.9366 31.6135 87.9366 33.9238C87.9366 36.2341 89.4814 37.6816 91.6123 37.6816C93.7431 37.6816 95.288 36.2341 95.288 33.9238ZM99.9204 33.9238C99.9204 38.5132 96.5847 42.0559 92.5392 42.0559C90.4697 42.0559 88.9558 41.3471 87.9366 40.177V47.7852H83.3042V26.2231H87.9366V27.6706C88.9558 26.5005 90.4697 25.7917 92.5392 25.7917C96.5847 25.7917 99.9204 29.3344 99.9204 33.9238Z" fill="white"/>
<path d="M113.889 33.9231C113.889 31.6128 112.345 30.1653 110.214 30.1653C108.083 30.1653 106.538 31.6128 106.538 33.9231C106.538 36.2334 108.083 37.6809 110.214 37.6809C112.345 37.6809 113.889 36.2334 113.889 33.9231ZM118.522 26.2224V41.6238H113.889V40.1763C112.87 41.3464 111.356 42.0552 109.287 42.0552C105.241 42.0552 101.906 38.5125 101.906 33.9231C101.906 29.3337 105.241 25.791 109.287 25.791C111.356 25.791 112.87 26.4998 113.889 27.6699V26.2224H118.522Z" fill="white"/>
<path d="M131.363 25.9146V31.1511C129.448 30.8431 126.73 31.613 126.73 34.6626V41.624H122.097V26.2226H126.73V28.9642C127.348 26.9005 129.417 25.9146 131.363 25.9146Z" fill="white"/>
<path d="M139.904 30.6586V36.1107C139.904 37.4351 141.047 37.5586 143.086 37.4351V41.6243C137.032 42.2405 135.272 40.4233 135.272 36.1107V30.6586H132.801V26.2229H135.272V23.297L139.904 21.9106V26.2229H143.086V30.6586H139.904Z" fill="white"/>
<path d="M146.183 26.2226H150.815V41.624H146.183V26.2226ZM145.719 22.0948C145.719 20.5856 146.986 19.3226 148.5 19.3226C150.013 19.3226 151.279 20.5856 151.279 22.0948C151.279 23.6041 150.013 24.867 148.5 24.867C146.986 24.867 145.719 23.6041 145.719 22.0948Z" fill="white"/>
<path d="M153.435 33.9231C153.435 29.3337 156.925 25.791 161.62 25.791C164.616 25.791 167.271 27.3622 168.6 29.7339L164.554 32.075C164.029 30.9966 162.917 30.3498 161.558 30.3498C159.55 30.3498 158.068 31.7979 158.068 33.9231C158.068 36.0482 159.55 37.496 161.558 37.496C162.917 37.496 164.059 36.8496 164.554 35.7711L168.6 38.0817C167.271 40.4839 164.646 42.0552 161.62 42.0552C156.925 42.0552 153.435 38.5125 153.435 33.9231Z" fill="white"/>
<path d="M170.834 19.1378H175.467V41.624H170.834V19.1378Z" fill="white"/>
<path d="M186 33.9238C186 31.6136 184.456 30.1661 182.325 30.1661C180.194 30.1661 178.649 31.6136 178.649 33.9238C178.649 36.2341 180.194 37.6816 182.325 37.6816C184.456 37.6816 186 36.2341 186 33.9238Z" fill="#45D492"/>
</g>
<defs>
<clipPath id="clip0">
<rect width="186" height="68" fill="white"/>
</clipPath>
</defs>
</svg>
